<svg width="459" height="92" fill="none" xmlns="http://www.w3.org/2000/svg"><path d="M3.275 79.867c1.6 1.2.1 4.2-1.9 3.6-1.2-.4-1.6-1.2-1.2-2.3.6-1.9 1.6-2.4 3.1-1.3zM11.075 85.067c0 1-.5 1.9-1.3 2.1-2 .6-3.1-.5-2.4-2.4.6-2.2 3.5-2 3.7.3zM16.475 89.267c0-.6.6-.9 1.4-.7.8.2 1.2 1 1 1.8-.5 1.6-2.4.7-2.4-1.1zM14.775 89.567c-.2-.1-.5-.6-.7-1.2-.2-.6.1-1 .7-.8.5.2.9.7.7 1.2-.2.5-.5.9-.7.8zM54.575.467c1.3-.9 2.3-.5 3 1.2.7 1.8.2 2.9-1.4 3.6-3.2 1.3-4.5-2.8-1.6-4.8zM446.975 78.067c-.1.1-.3.3-.6.4-.4.2-.6.1-.7-.2-.4-.6-.2-1.1.4-1.2.4-.1 1 .6.9 1zM442.075 69.167c-.1.1-.3 0-.2-.2.1-.1.2-.2.4-.2.1 0 .2.1.2.2-.1 0-.2.1-.4.2zM431.075 77.167c0-.2.2-.2.3-.2.2.1.3.2.2.4 0 .2-.2.2-.3.2-.2-.1-.2-.2-.2-.4zM430.775 71.667c-.2-.5-.2-.6.3-.9 1-.6 1.5.3.8 1.3-.3.5-.9.3-1.1-.4zM429.875 75.467c.2-.1.3.1.2.3-.1.2-.3.4-.4.4-.2 0-.2-.2-.2-.3 0-.2.2-.3.4-.4zM424.875 81.167c-.2-.6-.2-.8.4-1.4.5-.6.8-.7 1.3-.4.9.3 1.1.6 1.2 1.6 0 .7-.1.8-.8 1.2-.9.5-1.6.1-2.1-1zM429.175 76.167c.1.2-.1.5-.4.6-.7.3-.9-.2-.2-.6.3-.2.6-.2.6 0zM424.075 86.367c-.3.2-.7.3-.8.3-.2-.1-.8-1.2-.7-1.4.1-.5 1-1.1 1.3-1 .4.1.9 1.1.8 1.5 0 .2-.3.4-.6.6zM427.975 72.567c-.4 0-.4 0-.1-.2.2-.1.4-.1.5-.1.1.2-.1.3-.4.3zM429.075 67.067c.1 0 .2.3.2.6 0 .4-.2.5-.4.3-.3-.3-.2-.9.2-.9zM424.175 79.267c-.2-.3.3-.5.6-.2.3.2.2.2-.1.3-.2.1-.4 0-.5-.1zM426.775 69.567c-.3-.7.3-1.4.9-1.2.6.2.5 1.1-.3 1.5-.3.1-.5.1-.6-.3zM424.275 70.667c.4.7.2 1.2-.5 1.4-.7.2-1.1-.4-.8-1.3.2-.6.9-.7 1.3-.1zM420.475 82.267c-.3 0-.5-.1-.6-.2-.1-.3.8-.9 1.1-.8.4.1 0 1-.5 1zM422.475 67.767c-.2-.4-.1-.5.8-.8 1.3-.4 1.7-.3 1.9.5.1.9.1.9-.6 1.3-.7.3-1.7-.1-2.1-1zM412.675 68.067c-.6.1-.9-.8-.4-1.2.4-.3.6-.2.7.2.3.5.2.9-.3 1zM404.575 70.967c-.7.4-.9.2-.6-.5.2-.4.5-.6.6-.5.5.1.5.7 0 1zM409.875 68.167c.2-.6.7-.6 1-.1.4.6-.3 1.2-.8.8-.2-.2-.3-.5-.2-.7zM400.275 83.867c-.1 0-.2-.3-.1-.5 0-.2.2-.4.4-.3.1 0 .2.3.1.5s-.3.3-.4.3zM407.975 69.867c-.2.2-.5.1-.6-.1-.2-.4.3-.7.7-.4.2.1.1.4-.1.5zM408.375 69.267c0-.1-.1-.3 0-.3 0-.1.2-.1.4.1.1.1.1.2 0 .3-.1.1-.3 0-.4-.1zM405.375 62.267c.3 0 .4.3.3.5-.1.2-.3.4-.5.3-.3 0-.4-.3-.3-.5 0-.2.3-.4.5-.3zM401.375 71.167c.5.2.9 1.1.7 1.8-.1.2-.5.4-.9.5-.8.3-.9.2-1.2-.4-.6-1.2.2-2.3 1.4-1.9zM394.675 86.967c.2.9.1 1.4-.5 1.5-.5 0-1.1-.8-.8-1.3 0-.2.3-.5.6-.6.4-.2.5-.2.7.4zM392.775 85.567c.3-.1.6-.1.7 0 .1.1.1.3 0 .4-.2.1-.5.1-.7 0-.3-.1-.3-.2 0-.4zM378.475 81.867c-.2-.1.1-.3.8-.4.6-.2 1.2-.2 1.3-.1.1.1-.3.3-.8.4-.5.1-1.1.2-1.3.1zM376.075 82.267c-.1-.3 1.2-.5 1.5-.3.2.1-.1.2-.6.3-.4.1-.9.1-.9 0zM380.275 52.567c.1-.1.3-.2.5-.1.4.1.4.5 0 .7-.3.1-.6-.2-.5-.6zM380.475 51.267c0-.2.3-.4.5-.3.4.1.3.7 0 1-.4.2-.6-.2-.5-.7zM453.175 74.567c.4-.3.6-.2.8.1.3.6.2.9-.4 1.1-.6.1-.9-.8-.4-1.2zM450.775 75.867c.2-.6.7-.6 1-.1.3.6-.3 1.3-.8.8-.2-.2-.3-.5-.2-.7zM448.975 77.167c.2.1.1.4-.1.5-.2.1-.5.1-.6-.1-.3-.5.3-.8.7-.4zM449.675 76.767c.1.1.1.2 0 .3-.1.1-.3.1-.4-.1 0-.1-.1-.3 0-.3s.2 0 .4.1zM456.675 80.567c.3 0 .9.2 1.4.6.5.3.9.7.8.9-.1.2-.7-.1-1.4-.6s-1-.9-.8-.9zM454.375 78.967c.1-.1.5 0 1 .3.4.3.7.6.5.7-.4.2-1.7-.7-1.5-1z" fill="#AFEEEE"/><path d="M350.475 35.267c.9-.1 1.8-.4 2.7-.5 1.2-.2 1.2-.2 1 .1.69.099 1.379.391 1.782.783a.901.901 0 00.118-.383c.3.3.5.6.5.7 0 .4.5.7 1 .8l.5-.1.6-.1c.5-.5.9-1.1.9-1.2 0-.1-.7.2-1 .3-.2.2-.6-.1-.8-.5l-.1-.4v-.2c.1-.3.4-.2.5-.1.1.1.6-.1.7-.2.1-.1.6.1.7.2.1.1.8-.5 1.1-.8.3-.3.3 1.3 0 1.7-.3.3-.4.7-.2.7l.1.1.1.1c.1.1.6-.1.7-.2.1-.1.1-.7 0-.9-.1-.2 1.8-1 2.5-1s1.9-.5 2.1-.7c.2-.1 1.9 0 2.7-.3.8-.3 1.6-.3 1.7-.2.1 0 1.1-.3 1.4-.4.3-.1.6-.6.6-.7 0-.1.7.2.9.4.2.2 1.1-.1 1.3-.3.2-.2.6.4.7.6.1.3-1.4.9-1.9 1-.6.1-1 .4-1 .4 0 .1 1.1.1 1.6.1s.2.8-.1 1.1c-.3.3.1.6.8.7l.2-.3c.4-.6.9-.3 1.3-.4 1.4-.2 2.9-.3 4.3-.5.1 0 .2 0 .3-.1.6-.8 1.4-.2 2.1-.4.7-.2 1.4-.4 2.1-.5.2-.1.5.4.9 0 .2-.2.8.3 1.2.4.2.1.6.2.7 0 .7-.9 1.5-.3 2.3-.5l.9-.2c1-.3 2.2-.3 2.7-.1l.4-.2 1.3-.7c1.4-.1 3.3-.1 4.2.1l.6-.4.8-.6c.8 0 2.6-.4 3-.4.4 0 1.2-.2 1.8-.4l.5-.1c.6-.1 1.1 0 1.7 0 .1 0 .2-.2.3-.2.6-.3 1.3-.9 1.8-.7.8.3 1.3-.3 2-.1l.4.2c.5-.2 1.8-.9 2.1-.8.3.1.7.8.7.9.1.2.5 0 .6-.1.2-.1.4.4.5.6.1.3 1.2.2 1.6.1.4-.1.7.3.7.4 0 .1-.8.2-1.8.2l-.8.3c-1.2.4-2.2.9-3.4.8-.4 0-1-.2-1.3.1l-.7.9c-.9 0-2.6.2-3.8.5l-1.1.1c-.9.1-1.8.2-2.6.6-.7.4-1.4.2-2.1.4-.7.2-1.4.4-2.1.5l-.6.1c-.6.2-2.2.8-3.4 1.3h-2.8c-1.8.3-4.3.7-4.7.8-.4.1-1.6.6-2.6 1.1l-1-.3-.2-.1c-.3.1-1.2.1-1.999.1h-.001l-.6.6c-.7.7-1.4.2-2.1.4l-.4.1c-.5 0-.8.6-.8.7 0 .2-.1.3-.2.2h-.1c0 .1.1.3.1.4.1.1.2 0 .2-.1s.5-.3 1.1-.5l.5-.1c.7-.1 1.5 0 2.2 0 .3 0 .6.1.8-.1 1.2-1.1 2.4-.9 3.7-.9h.4c.4-.2 1-.1 1.2 0 .2.2-.3 1.3-.6 1.1-.3-.2-1.6-.1-2-.1-.3.1-1 .6-1.1.8-.2.2-1.2.2-1.6.1-.4-.1-2.2.1-4 .4l-1.7.8-.2.1c-.3-.3-.7-.3-1 0h-.2l-1-.1c-1 .4-2.1.9-2.5 1.1h-.4c-.7.1-1.4.2-2.1 0l-.7-.2c-.7.4-1.8 1-2.5 1.2h-.6c-1.4 0-2.8 1-4.3.6-.2 0-.4 0-.5.1-1.2.7-2.5.9-3.8 1-1.4 0-2.9.2-4.3.4-.2.1-.4.3-.6.3h-.4l-.7.7c-.5-.1-.9-.4-1.1-.7-1.5.1-3.5.1-4.4.2-.7.1-1.8.2-3 .2 0 .1-.3.2-.4.2-.1 0-.2-.1-.2-.2h-.9c-.1.3-.3.7-.4.7 0 0-.1-.4-.1-.7h-1.5c.1.2 0 .4 0 .4l-.1.3c0 .1.2-.1.2-.2v-.2h.7c.2 0-.3 1.2-.6 1.1-.3-.1-.9-.9-1-1.1-.1-.2-.7.7-.8 1-.1.2-.8 0-.9-.1-.1-.2.3-.5.4-.6.1-.1-.2-.4-.3-.5-.1-.1-.1-.2-.1-.3h-1.2c.1.2.1.4.2.4s-.3 1-.5 1.4c-.1.1-.1.3 0 .5H336.575c.6 0 .6.3 0 .5l-.6-.1c-.3-.1-.6-.1-.9-.1.2.4.4.9.5 1.1.1.3-1.6 0-2.2.1-.6.2-2.2 1.6-2.7 1.5-.5 0-2.4-.9-2.9-.6-.5.2-2.8.7-3.6.8l.9.1 1 .1c.7 0 1.4.1 1.9.3l.1-.1v.1c.3.1.5.2.6.3.1.2 2.4.4 3.2.4.7 0 1.2.3 1.4.5l.3-.2c.5.3 1.4.4 1.5.3.1 0 .2.1.3.1.1 0-.2.4-.3.5-.1.1-1.6.2-3.4.2.3.2.7.4.9.5.4.2-.3.3-.6.3-.1 0-.2.1-.3.2.9-.1 1.8 0 2.6.5l.1.1c.2 0 2.2-.8 2.9-.7.8.1 1.799.3 2.3.4l.036-.054.164-.246.7-.9c.7.6 1.5.8 1.6.7.1-.1.2.3.2.4 0 .2-.4.5-.5.6v.5l1.6-.1c.9 0 2.2-.1 3.5-.1-.1-.1-.2-.1-.2-.1-.2-.1-.3-.5-.3-.6 0-.1.5 0 .7.1.2.1.3.2.3.4 0 0-.2.1-.3.1h1.7c-.2-.2-.3-.5-.3-.6-.1-.3 1.7 0 2.4.2s1.3-.4 1.5-.4c.3 0 .4.6.4.8v.1c.5 0 .9.1 1.4.1-.2-.3-.3-.8 0-.8l.2.1.2.1c.1.2.1.5 0 .6h.001c.7.1 1.399.2 1.699.2.8.1 2.5.2 4.199.3h.201l.9-.2c.9-.2 1.9-.4 2.8-.5l1-.1c1.1 0 3.3 0 4.8.1l1.3-1c.4-.2.9-.1 1.4 0l.5.1c.5.2 1.2.1 1.6-.3l.4.7c.1.2.6.2.8 0 .8-.7 1.5-.5 2.3-.4l1 .1c1-.6 2-.7 2.1-.6.1.1 0 .6-.1.7-.1.2.2.3.3.3.1 0 .3-.5.4-.7.1-.2 1.1-.2 1.4-.1.3.1.6-.1.6-.2s.5-.6.7-.7c.2-.1 1.3.5 1.7.3.4-.2 1-.1 1.5.2l.2-.2c.6-.6 1.3-.3 1.9-.5.5-.2 1-.2 1.5-.4.6-.3 1.3 0 2-.1 1.1-.1 2.3-.3 3.4-.7.4-.2.8.6 1.1.2.6-.7 1.3-.4 1.9-.5.7-.1 1.4-.4 2.1-.5l.8-.1c.9-.2 2.9-.7 4.5-1.2l1.5.3c.4.1 1 .2 1.3-.1.7-.8 1.5.1 2.1-.5.7-.8 1.4-.5 2.1-.4h.1c.2-.2.4-.2.7-.3.5-.1.9-.1 1.3.1.4-.1.8-.2 1.3-.2 1.1.1 2.4-.5 3.5-.9l1.1-.4c1.2-.5 2.4-.4 2.4-.2.1.1.5-.2.6-.4.1-.1.4 0 .5.1.1.1.4-.4.5-.6.1-.2.7-.1 1.3.3l.3-.2 1.1-.9c1.2.2 2.2 1 2.2 1.2 0 .2-.2.3-.5.3h-.4c-.2.1-.4.3-.4.3 0 .1.8.1 1.2.1.4 0 1-.4 1.1-.6.1-.2.4.1.4.3.1.2.6.2.7.2.1 0 .4-.3.4-.4 0-.1-.4-.4-.6-.5-.1-.1 1.5-.4 2.1-.5.6-.2.7 0 .5.1-.2.1.3.3.5.3s.5-.5.5-.6c.1-.1.9-.4 1.1-.5.3-.1.8.3.9.5.1.2.4-.3.4-.4 0-.1 1.4-.6 3-1l1.4-.5 1.5-.5.274-.03.226-.17.5.111c1.068-.058 1.613.054 1.3.29l-1.3-.29c-.221.013-.464.032-.726.059l-.174.13c-.5.3-.8.7-.8.7s-.2.4-.3.5c-.1.1-.4-.1-.5-.2-.1 0-.9.6-1.2.9-.3.3-.9.2-1 .1-.1-.1-.8.2-1 .4-.2.2-.7.1-1.1-.1l-.3.1-.5.2c-.4.8-1.8.5-2.2.8-.4.3-1 .3-1 .2 0-.1-.4.1-.5.2-.2.1 0 .6 0 .7.1 0 0 .2 0 .3 0 0-.5-.4-.7-.6-.2-.2-2.6-.1-3.4 0-.8.1-1.9-.3-2-.4-.1-.1-.7.5-.7.8 0 .3 2.1.7 2.9.6.8-.1.9 0 .7 0-.1 0-.4.5-.4.6 0 .1-.7-.1-1.5-.4l-.5.3-.7.4c-.8.1-2 .2-2.8.4l-.7.1h-.3c-.2.2-3 .9-3.9 1.1-.9.2-2 .4-2 .4s-.6.4-1.3.9l-.5.1c-.8.2-1.5.1-2.3.5-.9.4-2 .2-2.9.6-.9.3-1.9.3-2.8.9l-.7.4c-.9 0-2.5-.4-2.9-.2-.4.2-1.4.5-2.2.7l-.8.2c-.8.2-1.6.4-2.4.7-1.1.4-2.1.9-3.2.8-.6 0-1.3-.3-1.7.1l-.6.6c.5.9.2 1.7-.7 2.2-.8.6-1.5.4-1.9-.5-.2-.5-.2-1 0-1.4-.5 0-1 .1-1.4.1l-.9.1h-.2c-.1 0-.6.5-.7.7-.1.2-1.4.4-2.9.4l-1.3.9-.7.5c-.9.2-1.9.6-2 .8-.1.2-1.2.3-2.5.2l-1.2.6-1 .5c-1.2-.1-3.8.5-4.4.5-.6.1-2.6.3-4.5.5 0 0-.1 0-1.9.1h-.1c-.1.2-.2.9-.2 1.1 0 .3-.7.3-1.6 0h-1.5c-.9.2-2.3 0-3.2-.3l-.8.3c-.2 0-.6-.2-.7 0-.7.8-1.5.6-2.3.5l-.9-.1c-.8.6-1.7.8-1.9.6l-.1.1c-.7.7-1.4.5-2.1.5-1.3 0-2.5-.1-3.8 0h-.4c-.3.2-.9.2-1.4-.1l-.3.1c-.9.4-1.8.9-2.7 1.3l-.6.3c-.8-.4-1.6-.1-1.7.1-.1.2-1.6-.7-2.1-.3-.5.3-1.2 1.2-1.3 1.3-.1.2-.6.1-.8 0-.1-.1-.2.4-.2.6 0 .2.8.3 1.1.3.3 0 1.7.6 2 .7.4.1.7-.1.7-.2s1-.8 1.4-1c.4-.2 2 0 2.5-.4.5-.5 1.1-.3 1.1-.1.1.2 1.3.5 1.7.5.4 0 .8-.2.8-.6l.1-.2.1-.3c.2-.2 2.2.7 2.7.5.5-.1 1.4-.1 1.6 0 .1.1 1.6-.6 2.1-.5.5.1 1.4.3 1.9.4l.2-.3c.6-.8 1.3-.6 1.8-.4l.6.2c.5-.2 1.7-.8 1.9-1 .3-.2.8-.1 1.2.1l.4.2.4.2c.4-.1 1-.4 1.4-.6l.4-.1.4-.1c.4-.2 1.1-.1 1.5.2l.2-.2.9-.8c1.1.1 3 .2 3.4.2.4 0 3.7-1.3 4.9-1.3 1.2-.1 3.6-.5 4.1-.5.5 0 3.4-.4 4.3-.5.9-.1 2-.1 2.4 0l.4-.5c.2-.2.5.2.9-.1l.1-.1c.4-.7 1.2-1.1 2.4-.7.8.2 1.1.5 1.4 1.2.2-.1.4-.4 1-1l.2-.2c.5.1.6 1.2.5 1.5 0 .2-.7.7-1.1.9.2.3.4.5.6.6.3.1.7.3.9.4.2.1.3.3.2.5-.1.3-.4.3-1.1 0-.5-.2-.8-.3-1.2-.2-.1.2-.3.5-.6.8l-.5-.4c-.7.2-1.2.1-1.7-.3l-.8.7c-.9-.1-2.2.2-2.7.7l-.5-.1c-2.6-.3-4.2.2-4.2.2-1.8.6-3.6 1.7-3.7 1.9-.1.2-1.2.4-1.6.4-.4 0-.1-.4 0-.5.1-.1-.5-.7-1.5-1.4l-.8.6c-.7.5-1.2.5-1.8.4-.7-.2-1.2.6-1.9.5l-.3-.1c-.28-.093-2.571.163-3.604.278l-.196.022c-.8.1-1.9.3-2 .3-.2 0-.4.6-.4.7 0 .1-.6.4-1.2.5l-.5-.6-.4-.5c-.5.2-1.4.2-1.9.1l-.5.2c-.5.2-1-.1-1.6.3-.4.4-1 .2-1.6.3l-.5.1c-.6.2-1.4 0-1.8-.4l-.4.5c-.7.9-1.3-.1-2-.2s-1.3 1-2.1.4-1.7-.6-2.5 0c-.2.1-.5-.7-.7 0 0 .1-.2.2-.3.1l-.4-.3c-.5 0-1.4 0-1.9-.1l-.5-.1c-.3-.1-.6-.2-.7 0-.6 1-1.4.3-2.1.5-.8.2-1.5.4-2.3.5-.7.1-1.4 0-2.1 0h-2.7c-.6.2-1.7.4-2.4.6l-.6-.2c-.2 0-.7.2-.8 0-.6-.9-1.3-.3-1.9-.5h-.1c-.1-.1-.3-.5-.3-.7 0-.2-.8-.3-1.1-.3-.3 0-.5-.5-.5-.7 0-.2.4-.1.5-.1 0 0 1.2-.1 1.6-.2.4 0 .4-.5.3-.6-.1-.1-.8.1-1.7.4l-.7-.5c-.7-.5-1.5-.5-2.1-.2-.9.5-1.7.4-2.5.4h-3.2c-.1.1-.2.5-.2.6 0 .1.5.3.7.4.2.1.3.5.3.6 0 0-.7.5-.9.3-.2-.2-.8-.1-1.4.2l-.3-.2c-.7-.6-1.3-.6-2 0-.1.2-.5.2-.6.1l-.7-.9c-.8.2-1.7-.1-1.7-.3 0-.2-.4.4-.5.7-.1.3-.5.2-.6.1-.1-.1-.4.1-.5.2-.1 0-.7-.2-1.4-.5l-.4.3c-.9.7-1.9.7-2.8 1.1l-.9.4c-.9-.1-2-.1-2.4-.1l-.084-.041-.316-.159-.5-.3c-.6 0-2.1.5-2.5.5-.3 0-.8.5-.8.7 0 .1-.4-.5-.5-.8-.2-.2-1.6-.2-2.1-.1s-1.8 0-2.9-.2l-1-.1h-.3c-.4.3-2.6-.3-3.3-.2-.7.1-1.6.7-1.7.8-.1.2.1.6.2.7.2.2 1.6.6 2.2.7.6.1 1.2-.1 1.3-.2.1-.1.9.8 1.3.7.4-.1.7.2.7.3 0 .2-1.1.4-1.5.3-.4-.1-1.5-.3-2.5-.4H283.775c-.9.2-3-.2-3.5-.4-.6-.2.2-1.1.6-1.3.4-.2 1.1.2 1.3.5.2.3.6.2.7.1 0-.1-.1-.9-.2-1.1 0-.2-2-.4-2.7-.4-.7 0-1.6 1-1.7 1.3-.1.3-.4.3-.5.2-.1-.1-.4.4-.8 1.2l-.4.6-.1.1c-.4-.2-.2-1.2-.1-1.4.1-.2.2-1.5.2-2s-.5-.6-.6-.5c-.1.1-1.2-.3-1.5-.2-.4.2-1.3.1-1.5.1-.2-.1-1.2-.1-2.1-.2l-.9.1-.8.1c-.9.2-2.3.2-3.2 0l-.8-.1c-.8-.1-1.5.2-2.3-.4l-.4-.3c-.6.3-1.7 0-2 .1-.3.1-1.2.6-1.4.6h-8.9c-.3 0-1.4-.8-1.7-.5-.3.3-.8.3-.9.2-.1-.1-.2.6-.2.9 0 .2.3.1.4 0 .1-.1.5.4.6.6.1.2.8.4 1 .4.2 0 .4.5.4.6 0 .2.9.3 1.2.3.3 0 1.4.1 1.7.1.3.1 0 1.6-.4 1.8-.4.2-2.5 0-3.2-.1-.7-.1-1.4-.5-1.5-.6 0-.1 0-.9.1-1.1.1-.2-.7-.4-1-.4-.3 0-.8.4-.9.6-.1.1-.9.1-1.7 0l-.7-.3-.7-.2c-.8-.4-2.4-.1-2.8-.2-.4-.2-.5-1-.4-1.2.1-.2-.2-.4-.5-.5l-.2.1c-.9.5-1.8.7-2.7 0l-.2-.1c-.4.4-1.6.5-1.8.2-.2-.3-.9-.2-1.1 0-.2.2.5.5.8.5.3 0 .3.8.2.9-.1.1.5.6.7.7.2.1 1.2 0 1.4-.1.3-.1 1.2 0 2.1.2l.8.1h.1c.2.1.2.6.2.7 0 .1-.3.2-.8.2l-.4.1-.4.1c-.3.1-2.3 0-2.9.1-.6.2-2.6-.6-3.2-.5-.6.1-.8.6-.3 1.1l.4.3.4.3c.3.8-.9 1.5-1.4 1.4-.499-.1-2.196-.499-3.893-.898l-.007-.002-1.5 1.1-.1.1c-.2 0-1.1-.1-1.9-.1l-.5-.5-.7-.7c-.7.2-1.8.5-2.4.6l-.3-.3c-.6-.7-1-.4-1.5 0l-.127.064a6.165 6.165 0 01-.873.636l-.6.1c-.6.1-1.3 0-1.9 0-1.1 0-2.2-.8-3.4-.6-.1-.2-.1-.6-.1-.7 0-.2 3.3-.3 4.5-.3.784 0 1.532.11 2.024.24a.892.892 0 01.176-.64l.3-.2.3-.2c.4 0 .6-.5.6-.6 0-.1-.4 0-.9.3l-.2-.2c-.6-.6-1.2-.3-1.8-.4h-.5c-.5 0-1.6-.2-2.5-.5l-1.5.5-.3.1c-.4 0-2.6-.5-3-.4-.3.1-.9.3-1.3.4l-.1-.2c-.3-.6-.7-.4-1.1-.4H199.175c-.2.4.1.9.3 1 .2.1 0 .6-.1.7-.1.1-1.3-.2-1.7-.3-.4-.1-.7-.5-.7-.6 0-.1.5-.3.7-.4.3 0-.2-.5-.3-.6-.2-.1-.8.1-1.5.4l-.3-.3c-.8-.7-1.7-.2-2.6-.4-.9-.2-1.7-.4-2.6-.5h-.1c.1 0 .2.5.3.8.1.3.5 0 .6-.1.1-.1 1.1.4 1.4.7.4.3 2.2.2 2.7.5.4.3-2 .6-3 .6s-4.3-.4-5.3-.7c-1-.2-1.4-1.2-1.3-1.5.2-.3.6-.2.9.1l.3.1.4.1c.7-.1.6-.7.5-.8-.1-.1-3.1-.2-4.2-.2s-1.8.6-1.7.8c0 .2-.7.7-.9.8-.3.1-.8 0-1.2-.2h-1.3c-1 0-2.3-.1-2.4-.2-.2-.1-.4 0-.5.1-.1.1-1.6-.6-2.2-.5-.6 0-2.1-.1-2.5-.3-.4-.2-.7-.6-.7-.7 0-.1 1.9-.4 2.2-.3.2.1.6 0 .6 0s.8.5 1.1.7c.3.2 1-.3 1.2-.5.1-.2.4.2.4.4 0 .1 2-.3 3.2-.1 1.2.2 2.2-.1 2.2-.3 0-.2-.8-.2-1.8 0l-.121-.069-.579-.33c-.9-.5-1.7-.1-2.5-.4l-1.4-.5c-1.6-.3-3.8-1.4-4.2-1.3-.4 0-1.6-.4-2.7-1l-1.1.7-.4.3c-.5.1-1.1-.3-1.1-.5 0-.1-.7-.1-1.6.1l-.5-.4c-.8-.7-1.5-.2-2.3-.4l-.7-.2c-.8-.1-2.6-.3-3-.3-.4 0-1.5-.5-1.7-.7-.2-.2-2.3.6-2.9.1-.6-.5-1.3-.3-1.4-.1-.1.2-.7-.1-.8-.3-.2-.2-2.3-.7-3.1-.8-.8-.2-1.2.2-.8.8l.3.2c.3.2.6.1.8.3l.6.5c.5.7 1.7 1.7 2 1.8.3.1 0 1.1-.2.8-.2-.3-.6-.4-.7-.3-.1.1-.6 0-1.1-.2h-.4l-.6-.1c-.6-.1-1.8-.2-2.6-.4l-.114-.017-.586-.084c-.7-.1-1.4-.4-2.1-.5l-.8-.2c-.8-.1-2.2-.5-3.1-.8h-.8c-.6 0-1.1-.5-1.6-.6h-.1c-.1-.3.5-.9.7-1 .2-.1.5-1.1.6-1.4.1-.3-.5-1.2-.8-1-.2.2-.6.2-.7-.1H133.875c-1.2-.3-4.7-.8-5.6-.9-.9-.1-1.9-.3-2.1-.4l-.2-.1-.4-.1c-.4 0-1.1-.1-1.5-.1l-.046-.015-.254-.085c-.5-.1-1.1-.6-1.7-.5-.3.1-.6-.4-.9-.4-.3 0-.7.3-1 .2l-1.6-.7c-1.8-.3-5-.8-5.6-.7-.7.1-2.1-.1-3.3-.4l-1-.3c-1.3-.4-2.7-.1-4-.5l-1.3-.3c-1.4.2-2.7.8-2.8 1 0 .2-1 .1-2.2-.2l-1.1.1-1.2.1c-1.3.2-2.5.2-2.8-.1h-.2c-1.9 0-2.3-.1-2.3-.1-1.9-.3-6.8-.4-8.1-.4-1.3 0-2.9-.1-3.1-.1-.2 0-2.5-.7-3.3-.6-.8.1-2.6.5-4.1.9l-1.3-.7c-.3-.2-.7-.2-1 0-.7.7-1.6.4-2.4.5-.3 0-.5.2-.8.3-1.1.4-2.2.8-3.4 1.2h-.1c-.1-.1-.1-.5 0-.6.1-.1-.1-.6-.2-.7-.1-.1-.2-.1-.3.1h-1.3c-1.3 0-2.7-.3-2.8-.5-.1-.2-2.1 0-2.9.1-.7.1-1.6-.1-1.6-.1-.1 0-.7 0-1.4.1l-.5.2c-.5.2-.9.9-1.4.9-.6 0-1.1.3-1.6.5l-.5.2c-.6-.1-1.5 0-2 .2l-.5-.1c-.5-.1-1 .2-1.5.2-.6 0-1.1-.1-1.7 0h-.5c-.7.2-1.7.2-1.9.1-.2-.1-1.9 0-3.8.2 0 0-.3.1-2.1-.8-.6-.2-1.3-.1-1.9 0-.6.1-1.2-.5-1.7-.4-.6.2-1.1-.1-1.6-.1-.2 0-.5-.1-.7 0l-.2.1c-.2.2-.5-.1-.5-.3 0-.2-.7-.3-1.6-.3H24.775c-.8 0-2.3.6-2.6.8-.2.2-.5-.2-.5-.3 0-.2.4-.5.6-.7.2-.2-.8-.3-1.1-.3-.3 0-1.4-1.2-1.7-1.5-.2-.3-1.6-.4-2-.3-.4.1-1.4.5-2.3.8l-.8.3-.7.3c-1.4-.3-.8-.9-.1-1 .7-.1 2.9-1.1 3.5-1.4.7-.3-.1-1.1-.5-.8-.4.3-2 .7-2.4.8-.5.1-1.1-.1-1.2-.2-.1-.1-1.5.7-1.9.6-.5-.2-1.5-.7-1.6-.8-.1-.1.5-.4 1.3-.8l.7-.5 1-.7c1.4-.5 2.9-1.7 3.1-2.2.2-.5 1.9-.9 2.5-.9.6 0 2-.2 3.2-.3l1-.2c.9-.2 1.7-.7 2.6-.5h.1c.02-.039.089-.1.2-.181v-.119s.02.039.04.09c.485-.339 1.63-.964 2.96-1.59l1.6.3h.6c.2-.2.2-.6.2-.8 0-.2-1.9.5-2.7.4-.7-.1-.5-1.3-.2-1.6.3-.3 2-.3 2.6-.2.6 0 1.3.1 1.5 0l.2-.1 1-.4c.6.3-.1.9-.6 1.1-.5.2.2.6.5.5.3-.1 1-.5 1.1-.6.2-.1.2-.3.2-.3 0-.1.5.2.7.3.2.1.5.4.5.5h.2s-.1-.2-.2-.3c0-.1-.1-.1-.1-.1s.1-.8.2-1c0-.3.6-.3.8-.2.1 0 1.1-.1 2.1-.3l.9-.1.7-.1c.7 0 1.2-.5 1.1-.7 0-.1.5-.1 1.3.1l.7-.2.7-.3c.409.051 1.026-.08 1.586-.221-.05-.042-.086-.079-.086-.079 0-.1.5-.1.7-.1a.26.26 0 01.05.006c.245-.062.442-.106.55-.106.4 0 .3-.3.1-.4-.1-.1 2.3-.6 3.2-.7.9-.1 1.5-.4 1.4-.5 0-.1.3-.3.5-.3s.2-.2.2-.3c0-.1-.9.1-1.3.2-.3.1-.6-.3-.6-.4 0-.1 1.8-.6 2.4-.7.7-.1 1.4.4 1.4.6.1.1.6.2.8.1.2-.1-.2-.4-.3-.5-.1-.1.2-.4.3-.5.1-.1.2-.7.2-1 0-.2.4-.3.5-.3.1 0 0 .9-.1 1.2-.1.3.1.7.2.7s.5-.7.6-1c.2-.3 1.3-.5 1.7-.5.4 0 .8.1.8.2s-.4.3-.6.4c-.2.1.9.3 1.3 0 .257-.192.514-.426.691-.596-.04.02-.216.096-.391.096l-.1-.1c-.4-.2-.8-.6-1.3-.8l-.5-.2c-.6 0-3.7.2-4.7.3-1 0-3 .3-4.5.5l-1.3.2c-.2 0-.4 0-.5.1l-1.2.8c-1.4-.5-2.7-.6-2.8-.5-.1.1-.9-.2-1.8-.6l-.8.4c-1.6.9-1.9.9-1.9.9-1.9.4-4.2 2.2-4.6 3-.4.8-1.1 1.4-1.3 1.3-.2-.1.9-2.1 1.3-2.7.4-.7-.3-1.2-.6-1.2s-.9-.5-1-.6c-.1-.1.2-.7.3-.8.1-.1.6.1.7.2.1.1.4 0 .7-.3l.2-.1.3-.1c.3 0 1.2-1.2 1.4-1.6.2-.4-.2-.9-.4-1-.2-.1.6-.6.9-.8.4-.2 0-.6-.8-1l-.4.4-.6.6c-.4-.1-1.3-.6-1.4-.7-.1 0 .1-.9.2-1.1.1-.2 2.2.5 2.9.4.7-.2 2.7-1.2 3.1-1.5.4-.3.3-.8.2-.9-.2-.1-.6-.1-.9.1H35.675c-.5 0-1 0-1.4.5l-.4.5c-.6-.1-2.4.2-4.1.6l-1.6-.2c-.1 0-.2 0-.3.1-1.1.6-2.3.8-3.5.9l-1 .1c-1.1 0-2.1 0-2.1.1-.1.1.4.3.6.4.2.1.1.6 0 .7-.1.1-1.8.4-2.4.5-.6.1-2.1.6-2.5.6-.4 0-1.5-.7-1.8-.6-.3.1-1.4-.1-1.6-.2-.2-.1-.6-.7-.6-.8 0-.1-1.9-.5-2.6-.6-.6-.1-1.5.1-1.6.2-.1.1-1.9-1.5-2.6-1.7-.7-.2-1.3-1.2-1.3-1.5 0-.3.5-.7 1-.8l.4-.6.3-.5c.6-.3.7-1 .6-1.2-.1-.2-.5 0-.6.1-.1 0-.4-.8-.5-1.2-.1-.4-1.2-.7-1.6-.7-.4 0-.5-1.1-.4-1.4.1-.4.9-1.8 1.2-2.2.3-.4.6-1.2.6-1.4 0-.3-.5-.6-.7-.6-.2 0-.1-1.7 0-2.3.1-.6 1.2-1.5 1.6-1.6.4-.1 2.2-.9 4-1.7 0 0 1.4-.6 3.8-.8.3 0 .6 0 .8-.2.5-.6 1-.2 1.5-.3.6-.1 1.1-.3 1.6-.5s.9.6 1.5.1c.5-.4 1.1-.2 1.7-.1 1.2.1 2.2-.7 3.4-.7h.1c.1-.1.4 0 .9.1h.4c.1 0 .3-.4.5-.4 1.7-.1 1.8-.1 1.8-.1 1.8-.6 4.7-1.3 5.2-1.4.5-.1 1.4-.2 2.1-.3l.5-.3c.6-.3 1.2-.5 1.9-.5h.2c.2-.1.4-.3.4-.4 0 0-1.2-.1-1.7-.1s-.4-.5-.3-.7c.1-.2.8-.4 1.6-.5l.6.4c.6.3 1.1 0 1.5.3.5.3.9.6 1.4.5l.6-.1c.6-.1 1.4.1 1.9.5l.5-.4 1.1-.9c1.4.3 2.9.4 3.4.3l.2.3c.4.6.7-.4 1.1-.2.4.2.8 0 1.2.1h.3c.3.1.7.2.7.1s.6 0 1.3.2l.6.1c.5 0 .9-.1 1.4 0l.9.1c1 .2 2.6.6 3.6 1l.9-.1h.1c.2.1.5-.3.6-.5.1-.2.5-.2.9 0h1.6c1.4 0 3.2.1 3.5.2.3.1 1.5-.4 1.8-.2.4.1 1 .1 1.5 0h.9c.5.3 1.3.6 1.8.8l.5-.2.5-.2c.044.008.1.016.167.026a.538.538 0 01.133-.026c.035 0 .07.025.101.057.991.128 3.133.358 3.899.443.9.1 2 .3 2.4.4l.2-.2c.4-.4.7-.5 1.1-.4.3.1.6.3.9.4.3.1.5-.6 1-.2.4.3 1 .4 1.5.4l1.1.1c1.2.2 2.4.4 2.6.3l.2-.1.3-.1c.3-.1 1.1.3 1.4.3.2 0 .9.1 1.4.2l.108-.021.392-.079c.5-.1.9 0 1.4 0h1.4c.4 0 .8-.1 1.2 0l.4.1c.4.2 1.1.5 1.5.6l.4-.1.5-.2c.6-.1 1.3-.1 1.4 0 .1.1 1.7.5 3.6 1l1.8-.3c.5-.1 1-.1 1.6.4l.5.4c.8-.5 1.6-.6 1.8-.3h.2c1.3-.3 2.5.4 3.8.5 1.2.2 2.4-.3 3.6.5.6.4 1.3-.1 2 .3.7.3 1.5.3 2.2.2.7-.1 1.2.6 1.9.6 1.3 0 2.7-.2 4 .4 1 .4 2.2 0 3.3.4 1.1.3 2.2.3 3.3.6.5.2 1.1.4 1.7.5 1.2.2 2.4-.1 3.6.5.6.3 1.3 0 2 .1s1.4.4 2.1.5c.6.1 1.3.2 1.9 0 .5-.2.9.7 1.6.1.4-.3 1.1.3 1.7.4l.8.1c.8-.1 1.8.4 1.9.5.1.1.5.1 1-.1h.4c3.2.1 6.1.3 6.1.3 1.8.1 4 .7 4.2.8.2.2.6-.1.7-.2.1-.1 1 0 1.4.1.3.1.9.6 1 .9.1.2 2 .8 2.6.9.548.092 1.18-.067 1.361-.172a1.058 1.058 0 01-.061-.028c-.8-.4-.8-.7 0-.7s2.9.4 2.9.5c0 .084-1.456.444-2.405.332.096.071.2.164.305.268h.2c1.9 0 2.4.1 2.4.1.21.022.433.045.667.066-.458-.488-.251-.97.433-1.166l.4-.3.5-.4c.5.3 1.1.9 1.3.9.1.1-.1.6-.2.7-.1.1-.8 0-1.5-.3l-.7.5-.148.074c1.873.173 4.371.326 5.948.326h1.7c.3 0 .8-.1 1 .1l.9 1c1.1 0 2.3-.4 2.4-.5.1-.1.4 0 .7.3h.2c.7.1 1.4.1 2.1 0l.6-.1c.7.1 2.4.1 2.9.3.5.2 2.4.6 4.3.8 0 0 2 .3 4.8.1 1.2-.1 2.4 0 3.6 0h.1c.1.2-.1.7-.2.8-.1.1-.6.2-1.2.2h-.5c-.5 0-1-.1-1.5 0l-.4.1c-.4.4-.2 1.1.4 1.5l.4-.2c.5-.2.9.1 1.4.1H212.675c.8 0 1.6.1 2.4-.1l.7-.2c.7.3 1.9.6 2.6.8h.7c1.1 0 2.2-.1 3.3 0h.4c.5.2.9.4 1 .3l.1-.1c.7-.8 1.3.3 2 .3.7.1 1.3-1 2-.3l.2.2c.3 0 3.7.3 4.9.3h.001c1.2 0 2.399 0 2.499-.1.1-.1.4.1.5.2.1.1.6 0 1.2-.2l.5-.1c1.4-.2 2.8.6 4.3.5 2.3-.1 3.4-.1 3.4-.1 1.9.1 3.9.3 4.5.5l.5-.1.072-.02c.67-.193 1.249-.359 1.828.22.2.2.6.2.8 0l.8-.8c.7.5 1.7.6 2.2.3l.041.042.159.158c.8.7 1.5.5 2.3.5h17c1.9 0 4.4-.1 4.7-.2.3-.1 2.3.6 2.9.5.7-.2 2-.1 2.3 0 .3 0 .6 0 .7-.1.1-.1.3.1.5.3h1.1c1-.5 2.1-.1 2.2.2.1.3.6-.5.7-.7.1-.2.7-.4.8-.4.1 0 .999.9 1.2 1.1.169.17.553.052.97-.23l-.07-.07.2-.1.044.044.056-.044.6.4c.5.4 1.2.2 1.9.2.3-.1.6-.4.9-.4h4.3c.2.2 2.2-.3 2.9-.2.7 0 1.1-.3 1-.4 0-.1.7-.5 1-.6.3-.1.7.5.7.8 0 .3.5.2.7.1.049-.049.292.12.561.292a3.681 3.681 0 01-.061-.492c0-.2.2-.3.2-.3v.7c0 .071 0 .13-.004.176.238.145.476.267.604.224.3-.1.7-.7.7-.9 0-.2.3-.3.6-.4l.05-.033.25-.167.3-.1c.2-.3.5-.1.5 0 0 .2.6.3.8.3.2 0 .8-.5 1-.7.2-.2.8.2.9.4.1.2.5-.2.9-.8l.5.8.4.6c.4-.3.7-.3.7-.2 0 .1-.4.4-.5.5-.2.1-.3.8-.3 1 0 .2-.5.5-1.1.5l-.4-.3-.8-.6c-.8.2-2.2.5-3 .7l-.8.1c-.6.1-1.4.1-2 .3-.2.1-.4.2-.6.2-1.3 0-2.6-.1-3.9 0-1.3.1-2.5.3-3.8.5-.6.1-1.2-.1-1.8.4-.4.4-1.3.4-1.9-.2-.2-.2-.7-.3-.8-.1l-.5.8c-.6-.2-2.6-.3-4.5-.3h-5.1c-.3 0-.8-.2-1 0l-.7.7c-.8-.2-2.3-.1-3.2.1l-.8-.9c-.1-.1-.4-.1-.5 0-.7.9-1.5.5-2.3.5h-7c-.3 0-.8.2-1 0-.6-.6-1-.7-1.5 0-.5.6-.9-.9-1.5-.3-.4.4-.8-.6-1.1-.2-.5.6-1.1.5-1.6.5h-13.9c-.3 0-.7.1-1 0-.3-.1-.6-.4-.9-.5l-.3-.1c-.3.3-.7.4-1 .3l-.3.3-.3.3c-.3-.3-1-.7-1.5-.9l-.5.1c-.6.1-1.2.6-1.7.4l-.3-.1c-.4-.2-2.3-.3-4.2-.3h-5.1c-1.9 0-3.8.2-4.3.4l-.2-.2-.6-.7c-.4.6-1 .8-1.3.6l-.3-.1c-.8-.4-1.6.5-2.4.5h-1.1c-.9 0-2 .3-2.6.5 1.4.1 4.5.1 7.5.1 4-.1 8.1-.1 8.1-.1h7.8s.6.1 2.9.1c2.4.1 4.8 0 7.1.2s2.8.1 2.8.1c2.1-.3 5.6-.5 7.8-.4l22.3.5h4c-.1.1-.2.1-.1.2s.6.2.8.2c.1 0 .7-.3 1-.2h.4v-.2h.3c.1.1.2.1.4.1.1 0 .3 0 .4-.1h3.5c.903 0 1.951-.036 3.035-.065l-.035-.035c0-.1.2-.2.3-.1l.1.1a.07.07 0 01-.005.026c.6-.015 1.208-.026 1.805-.026h.3c.1 0 .4-.1.7-.2v-.4l.4-.4c.4.2 1.4.7 1.6.6.3-.1.7-.4 1.1-.7l.4.5.3.4c.5.1 1.5 0 1.7-.1.2-.1.5-.6.5-.8 0-.2.5.5.6.8.1.2.6 0 .7-.2.1-.2.6-.3.8-.3.2 0 .1.6 0 .7 0 .2-.2.4-.3.5v.2c0 .1.2-.1.2-.2v-.189c-.007-.007-.007-.01 0-.01v.01c.09.096 1.335.782 1.8.69h.1c-.4-.3-.7-.6-.6-.6.1 0 .6.1 1 .2.1-.3.2-.5.2-.6-.1-.1-.6 0-.7.1-.1.1-.1-.2-.1-.6l.2-.1c.6-.6 1.5-.4 2-1.5v-.1c.1.1.4.6.5.8 0 .128.414.091.79.048a.893.893 0 01-.09-.149l-.038-.038-.162-.162c-.3-.1.2-.2.6-.3.1 0 .4.4.5.5 0 .035-.048.082-.116.128.305.093.516.388.516.472 0 .1.8.2 1.1.2.3 0 .9-.8 1.1-1 .1-.2 1.5.2 1.9 0 0-.1 0-.3.1-.4 0-.1.2-.1.3-.2.155.078.37.336.459.494.182.016.335.048.407.084.019-.015.034-.039.034-.078.074 0 .093.054.098.083.163-.13.302-.716.302-.883 0-.2.5-.7.7-.8.2-.1.6.5.7.8.1.2.3.4.4.4.1 0 .3-.7.3-1 0-.3 1.3-.7 2.9-.8l1.4.3c.5.1 1 .1 1.5 0 .4 0 .9 0 1.4-.3l.6-.3c.8.4 1.7.5 2 .4l.2-.2c.5-.4.9.7 1.5.1.4-.4 1.2-.2 1.7 0s1-.7 1.6-.1c0 .1.1-.2.2-.2 1.1-.3 2.2-.9 3.4-.7l.4.1c.5 0 .9 0 1 .1.1 0-.2 1.2-.3.9-.1-.3-1.2-.2-1.5-.1-.3.1-.8.5-.9.7-.1.2-.3.2-.3.2 0-.1-2.8.1-3.8.3-.4.1-.9.2-1.3.3h-.1c-.7.2-1.5.4-1.7.5-.3.3-.8.3-.9.2-.1-.1-.1.4-.1.6 0 .2 1 .3 1.5.3.3 0 .4.2.2.4h.1c.1 0 0 .1-.2.1l-.2.2-.2.3c-.4.5-.5-.7-1-.2-.3.2-.7.2-1 .2h-.4c-.4 0-.8-.3-1.1-.5-.1.1-.1.1-.2.1-.2.1-.3.1-.5.1-.1.2-.5.4-.6.4-.1 0-.1.5 0 .7 0 .2 1.9-.3 2.8-.2.9.2.4.4-1.1.6l-1.2.5c-.7.3-1 .4-1.2.5h14.3c2.2 0 4.5.1 5.1.1l.5-.2c.9-.3 1.6-.3 2.4 0h.1l.7-.3c.8-.1 1.7-1 1.8-1.2.1-.3 1.1-.8 1.5-1 .215-.053.373-.223.472-.4-.325 0-1.201.003-2.172.1l-.9 1.3c-.1.1-.4.1-.5 0l-.4-.8c-.6.3-1.4.6-2 .8h-1.1c-.7 0-1.8.2-2.4.5h-.6c-.5 0-1-.4-1.6 0l-.2.1c-.3-.3-3.6.4-4.7.4-1.1-.1-2.7 0-3-.2-.3-.2-1-.1-1.2 0-.2 0 .3-1.4.7-1.3h.3c-.1-.1-.1-.2-.2-.4s-.7-.4-.8-.6c0-.1.2-.2.5-.2h.2c.2 0 .4.2.5.1l.9-.8c.8.3 1.8.4 2.3.4l.1-.1c.2-.2.4-.2.4 0v.1c.4 0 1-.2 1.2-.1.1 0 .2.1.2.2 1.2-.4 4.4-1 5.7-1.2 1.7-.3 3.2-.2 3.3-.1 0 0-.2.1-.4.3.1 0 .1.1.1.1 0 .1.6.3.8.4.2.1-.2.4-.3.4-.1 0-.2.1-.2.2z" fill="#AFEEEE"/><path d="M378.475 27.667c-.8.2-1.5 0-2.3.3-1.6.6-1.6.6-1.6.8-1.9.4-5.3.7-6 .9-.7.1-1.7 1-1.9.8-.2-.2-.9-.2-1.4-.1h-.5c-.5 0-1-.1-1.4 0-.5.1-.9.4-1.4.5-.7 0-1.4-.1-2.1 0l-.7.1c-.8.2-1.9.4-2.6.5h-.6c-.6-.1-1.3.5-1.7.2l-1-.8c-.6.8-1.4 1.3-1.8 1.1l-.2.1c-.7.2-1.3.8-2 .8l-1.6.1c-1.7-.3-3.1-.6-3.1-.7 0-.1 1.5-.4 2.1-.7.5-.3 1.9 0 2.3-.1.4-.1 3.6-1.6 4.7-1.7 1.1-.2 3.4-.4 3.9-.4.6 0 2.5-.2 4.4-.5 0 0 .1 0 1.7-.9l.2-.1c.3.2 1.5-.5 2-.5.4 0 3.1.1 3.9-.1.8-.2 1.9-.3 2.3-.2l.05-.074.15-.226c.4-.7.9-.2 1.4-.4l.5-.2c.6-.2 2.5-.5 4.4-.6 0 0 2-.1 4.7-.3.2 0 .3.1.5 0l.4-.1c.4-.1 1.5.6 1.8 1 .3.4 1.7.8 2.2.4.5-.4 1.1-.4 1.2-.3.1.1 1.1-.4 1.5-.3.4.1 2.6-.2 3.3-.3.6-.1 1.4 0 1.5.1.1.1-.7.6-1.8 1.1l-1-.1c-.2 0-.4-.1-.5 0l-.9.9c-1.1-.2-3-.2-4.1 0h-2c-1.1 0-3.6.5-4.1.5-.5 0-1.3-.5-1.4-.6-.1-.1-.5-.1-1 0l-.4.1zM434.575 60.167s-.4.1-.9.3l-.3.1-1.6-.3c-1.8.4-3.4 1-3.6 1.2h-.2c-1.1 0-2.2.4-3.3.6-.1 0-.2-.1-.3-.1v.2c0 .4-.2.5-.6.4-.4-.2-.5-.4-.4-.8 0-.1.1-.1.1-.2l-.2-.1c-.6.3-1.6.3-1.8.2-.2-.1-2.4.8-3.2 1-.9.2-2.7.8-4.1 1.3l-1.3.5-1.2.5c-1.4.3-2.9.6-3.3.7l-.4.2-.8.5c-.5.1-1-.1-1.4-.4 0 .1-.1.2-.4.2-.7.1-.8-.2-.3-.6 0-.1.1-.1.1-.1-.1-.1-.2-.2-.2-.3 0-.1-.3-.2-.6-.2-.1.2-.3.4-.6.6-.7.4-1.2.1-1.2-.7h-.3c-.8.1-1.2.6-1.2.8.1.2.6 0 .7-.1.1-.1.2.4.2.6 0 .2-.8.2-1.1.1-.3-.1-.6.2-.6.3 0 .2-1.5.7-2 .9-.5.2-.9-.3-.9-.5s.7-.5.9-.5c.2 0 0-.4-.5-.9h-.9c-.6.1-.8-.4-.7-.6 0-.2.8-.3 1.6-.1l.5-.4c.6-.5 1.3-.3 1.9-.4.7-.2 1.4-.4 2.1-.5 1.4-.2 2.8.2 4.3-.4.9-.3 1.9-.5 2.8-.6l.9-.1c1.1-.2 2.9-.3 4.2-.3l1.1-.6c.6-.3 1.2-.4 1.8-.3.6.1 1.1-.3 1.7-.3.6.1 1.2.2 1.8-.2.6-.4 1.3-.2 2-.2h.1c.1 0 1.5-.5 3.1-1l1.5-.1c.4 0 .9.2 1.2-.2l.5-.5c.6-.2 2-.7 3.2-1.3l1.2.1h.1c.1.1.2.5.2.6 0 .1-.4.4-.5.5-.1.1 1.5.8 2.2.9.6 0 .9.2.5.3l-.3.1-.4.1c-.4.2-.9.1-.9.1zM297.075 29.567c-1.2.1-2.5.4-2.6.5-.1.1-.5-.1-.6-.2-.1-.1-.5.1-.7.2-.2.1-.5-.1-.6-.2-.1-.1-.3 0-.4.1 0 .1-1.6.2-3.5.2h-2.5c-.1-.2-.6-.3-1 0h-2c-.7 0-1.4-.3-1.9.1-.6.4-1-.2-1.5-.1-.8.1-1.5-.1-2.3.4l-.5.3c-.8-.4-2-.4-2.8 0l-.5-.3c-.9-.6-1.7-.4-2.6-.4h-6.7c-1.8 0-3.8.1-4.4.3l-.4-.7c-.1-.1-.6.4-.7.3-.6-.7-1 .3-1.6.1-.6-.2-1.3 0-1.9 0h-.6c-.7 0-1.1-.2-1.1-.3 0-.1-.3-.3-.4-.3-.1-.1.1-.6.2-.7.1-.1.6-.3 1.2-.4l.4.3c.7.6 1.4.3 2 .3h.2c.3 0 1.5.1 2.6.2l1-.3c.4-.1.9 0 1.3-.3.5-.3 1.2.1 1.7-.1l.5-.3c.5.1 1.4 1.3 1.7 1.1.2-.2 2.1-.4 2.7-.5.6-.1 1.6 0 1.8.1.2.1 1.3.2 2.6.2l1.2-.4c1-.3 2.2-.6 3.3.4.2.2.6.2.7 0 .5-.9 1.1-.4 1.6-.5 1-.1 1.9.3 2.8.5l.9.2c1-.1 3.1-.1 3.6-.2.5 0 2.8-.8 3.5-.7.7.2 2 .1 2.2 0 .3-.1 1.3 0 2.2.3l.9-.2 1.8-.3c.5-.1 1.1-.3 1.7-.5.1 0 .2-.1.3 0 .6.9 1.4.3 2.1.5h.1c0 .2-.1.6-.2.7-.1.1-3.6.5-4.8.6zM403.275 29.667l-1-1.2c-.7.9-1.8 1.2-2 1.1-.2-.1.7-.8 1-1 .2-.2 3.4-1.6 4.5-1.7 1.2-.1 3.5-.3 5.3-.5l1.6-.2c.1 0 .2.1.3 0 .6-.9 1.5-.1 2.1-.5.7-.4 1.4-.5 2.1-.5.6 0 1.2.1 1.8-.4l.4-.3c.9.3 1.9.4 2.1.3.3-.1.6 1.1.5 1.4-.2.3-1.2.6-1.5.6-.3 0-1.1.7-1.6 1.5H417.675c-.4 0-1.5.7-1.8.6-.3 0-2.1.1-4 .4 0 0-.7.1-2.8 0-.3 0-.5.4-.9.1-.2-.2-.7.4-1.1.6h-.1s-.5-.2-.6-.3c-.2 0-.4-.9-.5-1.3-.1-.4-.5.2-.6.4 0 .2-.5.5-1 .7l-.4.1c-.2.1-.5.2-.6.1zM279.975 79.567h.2c.2.1.3.7.7.8-.1.1-1.6.2-3.5.2h-2.2c-1.9 0-3.7-.2-5.5.1-1.8.2-2.1.2-2.1.2-1.9-.2-3.5-.4-3.5-.5 0-.1-3.4-.3-4.7-.3-1.3 0-1.9-.6-1.8-.8.2-.2 1.3-.3 1.7-.3.4 0 .7-.2.7-.2s-1.1-.5-1.5-.7c-.5-.2-.3-.9-.2-1.1.1-.1.1-1 0-1.3-.1-.3.1-.3.4 0l.1.4.1.3c0 .4.3.6.4.6.1 0 .2-.7.2-.9.1-.3.6-.5.8-.5.2 0 .9 1.1 1.1 1.4.2.3.8.6.9.6.1 0 .2.5.2.6 0 .2-.4.4-.6.5-.2.1-.3.2-.3.3 0 .1 1.499.1 3.299.1h2.001c.4 0 2 .8 2.4.3.4-.4-.2-.8-.6-.8-.3 0-.5-.2-.5-.3 0-.1-.3-.3-.4-.3-.1-.1-.1-.2-.1-.3 0-.1 1-.1 1.4-.1.4 0 .9-.3 1.2-.7.3-.4 1.5-1.3 2.6-1l1 .2.4.1c.5-.2 1 1 1.1 1.5.1.6-1.3 1-1.9 1-.6 0-.9.3-.8.4v.1c.1-.1.4-.1.6-.2l.3.3c.5.4.9.3 1.3.3h5.1zM382.375 32.567c-.1-.2-.5.6-.7.9-.088.264-.561-.09-.607-.112a.07.07 0 00.007.012c-.012-.012-.014-.015-.007-.012-.171-.31.622-1.097 1.707-1.788l1.1.9.3.2c.5-.2 1.1-.2 1.2-.2.1 0 1-.9 1.1-1.5.1-.5.5-.2.6.1.1.3.7.1.8 0 .1-.2-.1-.9-.3-1.2-.2-.3-1.3-.5-1.7-.5-.3 0-.3-.1.1-.3l.2-.3c.5-.7.7.2 1 .1.3-.2.6-.4.9-.4.4 0 .8.1 1.2 0h.3c.4-.1.7.1.7.3 0 .2-1.2.3-1.6.3-.4 0-.7.5-.7.7 0 .1.7-.1 1-.1.2-.1.8-.1 1.1.1.2.2.6.9.6 1 0 .1.8-.8 1.2-.7.3 0 .9-.3 1-.5.1-.2.4.4.5.6 0 .3.2-.1.2-.3.1-.2.2-.3.4-.4.2-.1.7-.8.7-1 0-.2.5-.7.6-.8.1-.1.6.2.7.4.1.2.6.3.7.3.2 0 .4-.5.4-.6 0-.1.7-.6 1-.7.3-.1.8.1.9.3.1.1-.2.5-.3.6-.1 0-.2.2-.2.3 0 .1.6.1.8.1.2 0 .6 1 .7 1.4.1.4-.6.6-.8.6-.2 0-.5-.6-.5-.7-.1-.1-.8-.2-1.1-.2-.3 0-1.4 1.3-1.8 1.2-.3-.1-1.6.4-2.8 1.3l-1.3-.1-1.1-.1c-1.2.3-2.3 0-2.3-.2s-.2.2-.3.4c-.1.1-.9.4-1.9.6l-.9.2-.9.3c-1 0-1.9-.4-1.9-.5zM310.575 81.067c-.4-.2-3.1.1-3.9-.1-.8-.2-2.7-.2-4.1 0l-1.3.1-1.4.1c-1.5-.1-4.7-.3-5.4-.5-.8-.3-.1-.8.3-.9.4-.1 1.9-.1 3.3.1l1.3.1h.4c.5-.3 1-.4 1-.3 0 .1 1.6.2 3.5.2l8.7.2c1.9.1 3.2.4 3.1.6-.1.2-.8.2-1.6 0-.7-.1-3.5.5-3.9.4zM325.975 25.167c1.2.2 2.2 1 2.2 1.2 0 .2-.9.4-1.9.5l-.149.03-.851.17c-1.7.4-3.5.1-5.3.5-1.6.4-3.2.2-4.7 1.1-.1.1-.5.1-.6-.1-.4-.7-.9-.4-1.3-.4h-1.2c-1.3 0-2.4 0-2.4-.1s.5-.5 1.1-.8l.6-.1c.6-.1 1.2.2 1.7-.1l.6-.3c.5.2 1.7-.3 2-.2.3.1 1.3.3 1.6.2.3-.1 2.1-.3 4-.4 0 0 1.1 0 3.3-.2.1 0 .2.1.3 0l1-1zM28.975 66.367l-.3.1c-.8.2-.8.2-.9.1-.9.4-2.1.8-2.3.7-.2-.1.8-.8 1.2-1.1.5-.3 0-.9-.2-1-.1 0-.9-.1-1.6 0l-.077.039-.323.161c-.4.3-.8.9-1.2 1.2l-.4.3c-.3.5-.4.7-.3.5v-.2l.1-.4c-.1-.4 1-2.1 1.4-2.6.4-.5 1.2-.7 1.8-.6.6.1 3.6.5 4.2.7.5.1 1 1.1 1 1.4 0 .3-.7.9-.9 1-.2.1-.7-.1-1.2-.3zM368.975 30.767l.8.1c.9-.1 1.7.5 1.8.5 0 .2-.3.1-.6-.2h-.3c-.4.1-1 .2-1.3.6-.5.8-.9-.6-1.3.2l-.4.7c-.5-.5-2.4-.6-4.2-.1-1.8.5-3.5.5-3.5.5-1.9 0-2-.7-1.5-.9.5-.2 1.9-.2 2.4-.2.5.1 1.7 0 2.7-.1l.202-.115.498-.285c.8-.4 1.5-.1 2.3-.2.8-.1 1.5-.6 2.4-.5zM96.675 3.967c-.1 0-.4.5-.4.7 0 .2-1.1.3-2.6.2l-1.2.1-1.2.1c-1.2-.4-2.2-1.2-2.2-1.4 0-.1.3-.2.7-.2l.3-.1c.4 0 .8-.4 1.1-.4.6 0 1.2-.4 1.8.3.5.6 1.1-.5 1.7.1l.1.1c.1-.2 1.4-.1 1.8 0 .4 0 .7.2.7.2s-.4.3-.6.3zM167.675 74.867c.5.2 1 .7 1 .8 0 .2-3.7.4-5.2-.4-1.3-.6-2.4-1.7-2.4-2 0-.2.4-.2.9.1l.1-.1c.4-.8.6.5 1 .2.3-.2.7 0 1 0h.4c.4 0 .9.6.9.7 0 .1 1.7.6 2.3.7zM18.175 46.567c0-.4.6-.6.9-.6.2.1 2.2-1.8 3.1-2.6.8-.6 2.2-.9 2.6-.6.3.3-.8.4-1.2.7-.4.3-.5 1.2-.4 1.3 0 .1-1 .6-1.5.8-.4.2-1.4 1.2-1.6 1.6-.2.4-.9.3-1.4-.1l-.4-.4-.1-.1zM71.375 70.967l-1.2.7c-1.2.8-3.3 2.1-3.8 2-.5.1-.9-.7-.8-1.6l.7-.2.4-.1c.5-.4 2.8-.5 3.6-.7.8-.3 1.3-.4 1.2-.2l-.1.1zM114.675 8.067c.1.2.1.7.1.8 0 .1-.6-.6-.7-.8-.1-.2-1.4-.5-2.8-.6-1.5-.1-5.5-.7-5.7-.9-.2-.3 4-.6 5.5-.2 1.6.4 3.4 1.5 3.6 1.7zM332.775 26.167c-.9.2-1.8.2-1.9.1-.1 0-1.6.4-1.7 0-.3-.3 0-.8.7-1.2h.9c1.7-.1 3.4.3 5.1-.5h.1c.1.1.2.6.2.7-.1.1-2.5.7-3.4.9zM24.475 50.267l.1.2c.5-.4 1.1-.4 1.1-.2 0 0 .3-.1.4-.2.1-.1.2.4.2.5 0 .1-1.5.2-3.4.3l-3.3-.1c-1.9-.2-.2-.4.9-.4 1.2 0 1.3-.9 1-1.1-.2-.2.1-.5.7-.6l.3.7c.5.9 1.4.1 2 .9zM156.575 73.467c1 .2 1.7.6 1.6.7-.1.1-.4 0-.7-.3l-.3.1c-1.6.3-3.1-.6-4.7-.5-.2 0-.4-.1-.5-.2-.1-.2-.6-.3-.4-.8l.2-.4c.4-.4.9-.1.9 0s2.8 1.3 3.9 1.4zM308.875 27.567c.2-.2.5-.2.5-.1 0 0-.2.6-.6 1-.1.2-1.1.1-1.4 0-.3-.1-.7 0-.8.3h-.1c-.5 0-1-.1-1.5 0h-.4c-.4.1-1.2.4-1.7.8l-.4-.5-.1-.1c0-.3.5-.9.7-1.1.2-.1 1.4.5 1.8.2.4-.3 1-.1 1.1 0 0 .1 1-.3 1.4-.2.4.1 1.3-.2 1.5-.3zM440.975 57.867l.4.3c.6 0-1.8 1-2.8 1.1-1.1.1-1.6-.2-1-.6l.5-.2.5-.2c.5-.1 1.4-.5 1.9-.7l.5.3zM289.075 80.967c-.3.1-.8.3-1.1.1l-.9-.6c-.9.1-1.7-.4-1.7-.5 0-.1.7-.2 1.6-.1.9.1 3 .7 2.5 1l-.4.1zM400.975 24.967c-.1 0-.2 0-.2-.1.1.1.2.1.2.1.8 0 1.5 0 1.6.2.1.3-.6.2-1.6-.2zM399.075 24.967h1.7c-.1.1-.1.1-.3.2l-.8.9c-.9-.4-1.9-.9-2-1-.1-.1.5-.1 1.399-.1h.001zM381.575 29.167c0 .2-.2.8-.6 1.3l-.5-.5c-.3-.2-.8-.5-.9-.3-.4.7-.9.4-1.4.5l-.4.1c-.4.1-.6.1-.6 0s-.3-.2-.4-.2c-.1 0-.1-.2-.1-.2s2.2-.5 3.1-.7c.9-.2 1.7-.1 1.8 0zM343.175 77.167l.4-.1c1-.2 1-.2 1.1-.2 1.2.4 0 1.5-.8 1.3-.8-.2-1.1-.7-.7-1zM324.475 30.767c.1-.2 1.1-.7 1.4-.8.3-.1.7 0 .7.4l.1.2c-.1.1-1 .2-1.3.2-.3 0-.7.7-.7.9 0 .2-1.2.7-1.6.8-.4.1-.7-.2-.7-.4s.3-.3.6-.3 1.4-.8 1.5-1zM401.775 37.167c-.4 0-1.2-.6-1.1-.7.1-.1 1.7.2 2.3-.1.6-.2.3.2 0 .4-.2.2-.8.4-1.2.4zM390.975 38.067c.2-.2 1.1 0 1.4.2.3.2 0 .8-.3.8-.2.2-.2.4 0 .5l.1.1.1.1.2.2c.1.1-.6.2-.8.2-.2 0-.3-.4-.2-.6.1-.2-.6-.3-.9-.3-.2 0 .2-.9.4-1.2zM91.075 11.667c-.4-.1-.8-.7-.8-.9 0-.1.6-.3 1.4-.4.7-.1 1.8 1 1.4 1-.4 0-1.6.4-2 .3zM374.775 45.067c0 .1-.5.2-1.2.2l-.6.1-.6.1c-.7.3-1.3-.1-1.3-.2s1.8-.6 2.5-.7c.6-.2 1.2.3 1.2.5zM210.375 28.667c-.1-.1-.1-.3-.1-.3 0-.1 1.6-.1 2.3-.1.6 0 1.1.5 1.1.6 0 .2-.4.3-1 .3s-1.9-.1-1.9-.2c0 0-.3-.2-.4-.3zM225.775 28.967c0-.2.5-.3 1-.3h.9c.5-.3 1.3-.2 1.7.1l.5-.5.2-.2c.6.4 1 .9 1 .9 0 .1-1.5.2-3.4.2h-1.8s-.1-.1-.1-.2zM352.175 76.967c-.6 0-.7-.5-.6-.6.1-.1 1.3-.3 1.9-.2.5 0 .9.1.9.3-.1.2-1.6.5-2.2.5zM181.075 25.167c-.5 0-.9-.2-1-.3-.1-.1 1.2-.7 1.8-.6.5 0 .9.6.9.7 0 .1-1.2.2-1.7.2zM103.075 10.067c1 .2-.8.4-1.8.4s-1.8-.1-1.8-.1c0-.1.8-.3 1.8-.3h1.8zM347.375 77.267s.2-.1.5-.2c0-.1.1-.1.2-.1.4-.2 1-.3 1.2-.3.5 0 .9.4.9.6 0 .2-.5.4-1.2.5l-.4-.4c-.3-.2-.4-.4-.5-.4-.1.1-.1.1-.2.1-.3.2-.6.3-.5.2zM205.775 78.267l.8-.7c.5.8-.1 1.4-1.3 1.3h-1.1l.3-.6c.1-.2.6-.1 1.1.2l.2-.2zM245.675 79.167c.4 0 1.5.5 1.5.7 0 .1-1.3.2-1.9.1-.5 0-.6-.5-.5-.6.1-.1.5-.2.9-.2zM293.575 75.867c.1-.2.6.3.8.6.2.3-1.3.5-1.9.5-.6 0-.9-.2-.6-.4.3-.2 1.1-.3 1.2-.2 0 .1.4-.3.5-.5zM393.275 49.767c-1.2.2-2.4.5-3.9.8 2.1.5 2.6.5 3.9-.8zM359.375 76.167c-.5 0-.6-.9 0-.9s1.1.3 1 .5c0 .2-.5.4-1 .4zM364.375 74.367l.4-.2c.5-.3 1.2 0 1.7 0 .1.1-.1.5-.2.6-.1.1-.5.2-1 .2-.4 0-1.3-.3-.9-.6zM374.975 54.967h-.5c-.7-.1.7-1 1.1-.6.4.3.3.6-.2.6h-.4zM5.175 30.967c0-.2.4-.2.5-.2.2 0-.2 1.4-.5 1.9-.1.5-.5.6-.7.3-.2-.4-.1-1.2.1-1.2s.6-.6.6-.8zM318.775 31.767c.1.1.1.6.1.8 0 .2-.5 0-.6-.1-.1-.1-.4 0-.5.2h-.2c-.2-.1-.3-.5-.2-.8.1-.3.8-1.1 1-1.1.1 0 0 .4 0 .5 0 .1.3.4.4.5zM251.875 79.167c.5 0 .4.2-.1.6-.6.4-1.7-.1-1.6-.3.1-.2 1.2-.3 1.7-.3zM357.975 56.367c0 .3-.4.5-.8.4-.4 0-1.5.2-1.6.1 0-.1.5-.5.6-.6.2-.1.7 0 .8.1.1 0 .5-.5.7-.6.2-.2.3.3.3.6zM375.275 74.567c.5 0 .5.3-.1.6-.6.4-1.8-.2-1.7-.4.1-.1 1.3-.2 1.8-.2zM338.875 25.467c-.4.1-1.1-.2-1.3-.4-.2-.2.2-.3.8-.4.6 0 1.9.4 1.3.9h-.4l-.4-.1zM40.575 64.967c.6 1.3.7 1.3 2.6 0h-2.6z" fill="#AFEEEE"/><path d="M382.575 28.767c.2 0 1.1.1 1.3 0 .1 0 .2.5.3.6 0 .1-.9.2-1.3.2s-.7-.4-.7-.6c0-.2.2-.3.4-.2zM382.675 73.467c-1-.9-2 0-3.2.3 1.3.8 2.2-.5 3.2-.3zM336.775 53.967c0 .2.6.1.8 0 .1-.1.2.5.3.6-.1.2-1.1.3-1.4.3-.4 0-.6-.2-.5-.5.1-.3.7-.6.8-.4zM62.675 9.367c-.2-.3.1-.8.2-1 .2-.1.5-.2.7 0 .3.1-.7 1.2-.9 1zM240.775 28.767c.2.1-.1.3-.5.4-.4.1-.8-.6-.6-.7.3-.1.9.2 1.1.3zM430.375 25.767c-.3.2-.6-.1-.6-.2s.5-.4 1-.6c.5-.1.8.1.8.3 0 .2-.3.3-.6.3l-.3.1-.3.1zM267.575 75.767l-.4.2c.1 0 .3 0 .4-.2zM268.475 75.967l-.1.1c-.1.2-.2.4-.2.3-.2-.3-.3-.4-.4-.5.4-.1.8-.1.7.1zM269.475 75.567c.1-.4.6.1.7.4.1.2.1.5-.2.7-.2.1-.6-.7-.5-1.1zM319.375 32.067c0-.1.8 0 1.1.2.3.2.2.3-.1.4-.3 0-1-.5-1-.6zM169.375 75.067c.1-.1.9.1 1 .4.1.3-.3.5-.5.6-.1 0-.5-.4-.6-.5-.1-.2-.1-.4.1-.5zM18.175 44.167c-.2.1-.1-.4.1-1 .2-.7.7-.1.7.1-.1.2-.6.8-.8.9zM294.875 83.067c-.3 0-.3-.4-.1-.8.3-.4 1.2.4 1.2.5 0 .2-.8.3-1.1.3zM422.475 28.567c-.9-.4-.9-.4-1.9.5.7.6 1.3-.2 1.9-.5zM3.175 28.767c.3-.8.9-1 .9-1.9-.9-.1-1 0-.9 1.9zM46.175 7.567c.1 0 0 .3-.1.5l-.2.2-.1.2c0 .4-.4.5-.7.4l-.2-.1c0-.2.6-.8.8-1 .3-.2.5-.3.5-.2zM197.875 25.267c0 .2-.7.3-.9.3-.2 0-.4-.4-.4-.6 0-.2.2-.3.4-.3.3 0 .9.5.9.6zM433.875 24.767c.4.1-.1.7-.4.6-.3-.1-.7-.2-.8-.3-.2 0 .7-.3 1.2-.3zM116.875 7.667c.4 0 .7.4.7.6 0 .1-.3.2-.7.1-.4-.1-1.3-.6-1.3-.6 0-.1.9-.1 1.3-.1zM203.575 25.567c-.5 0-.9-.2-.9-.2s1.3-.1 1.8-.1.9 0 .9.1-1.3.2-1.8.2zM33.675 39.567c0-.2.2-.3.4-.3s.3 1 .1.9c-.3 0-.5-.4-.5-.6zM270.675 26.167c.3 0 .6.5.6.7 0 .3-.3.3-.6 0-.3-.1-.3-.7 0-.7zM214.475 25.767c-.3-.1-.1-.5.3-.5.3.1.4.5.4.5-.1.1-.4.1-.7 0zM376.275 44.167c0-.1.7-.2.9-.2.3 0 .3.3.1.6-.3.4-1-.3-1-.4zM312.575 77.067c.3.1.2.4-.1.5-.3.1-1-.7-1-.8.1-.1.8.2 1.1.3zM120.775 8.967h2.3c-.8-.6-1.5-.4-2.3 0zM128.375 9.467c0-.1.8 0 1.1.1.2.1.5.2.6.2 0 .1-1 .2-1.3.2-.4 0-.5-.4-.4-.5zM109.275 10.867c0 .2-.7-.2-1-.4-.3-.2-.2-.4 0-.3.3 0 1 .5 1 .7zM114.075 10.267c.2-.2.5.3.5.4 0 .1-.7.2-.8.2-.3 0-.5-.1-.5-.1s.2-.2.4-.3l.2-.1.2-.1zM348.975 54.467c-.1-.1.1-.3.4-.5.3-.2.9.3.7.4l-.2.1-.2.1c-.2.2-.6 0-.7-.1zM445.075 56.767c-.8.4-1.4.6-2.1.9.8.4 1.4.5 2.1-.9zM340.575 80.967c0-.2.1-.3.3-.3.2 0 .6.4.6.6 0 .2-.4.3-.6.3-.2 0-.3-.5-.3-.6zM317.775 81.067c-.2.1-.5-.4-.6-.6 0-.2.1-.4.3-.3.2 0 .4.7.3.9zM310.375 76.667c.2 0 .3.5.3.6 0 .1-.1.2-.2.3-.2 0-.7-.5-.7-.6 0-.2.4-.3.6-.3zM409.675 34.267c-.5.2-1 .4-1.5.7 1.1.5 1.1.5 1.5-.7zM323.175 72.967c0-.1.2-.3.4-.3s.1.8-.1.8-.3-.4-.3-.5zM160.075 74.167c0 .2-.1.3-.3.3-.1 0-.6-.4-.7-.6 0-.2.5-.3.7-.3.2 0 .3.5.3.6zM265.675 75.067l-.3 1.2c-.1.4-.2.4-.2 0s.4-1.2.5-1.2zM183.575 76.967c0-.2.1-.3.3-.3.1 0 .6.4.7.6 0 .2-.5.3-.7.3-.2 0-.3-.5-.3-.6zM207.875 78.567c.3 1.1.8 1.1 1.3.9-.3-1-.7-1-1.3-.9zM344.375 55.967c.3 0 .6.6.4.7-.2.1-.5-.2-.7-.3-.1-.3 0-.4.3-.4zM95.775 10.467h1.6c-.5-.6-1.1-.4-1.6 0zM236.375 75.467c-.2-.3-.2-.5.1-.4.3 0 .8.7.7 1 0 .1-.6-.3-.8-.6zM109.775 5.367h2c-.9-.5-1.4-.3-2 0zM373.675 72.667c.2-.2.4-.2.4 0 .1.2-.4.8-.7.8-.3 0 .1-.6.3-.8zM40.175 9.467c-.2.1-.4-.4-.4-.6 0-.2.1-.4.3-.3.2 0 .3.7.1.9zM38.075 74.867c-.1 0 .2-.8.3-1.1.2-.3.3-.2.2.1 0 .3-.4 1-.5 1zM184.275 25.067h2c-1-.6-1.5-.3-2 0zM380.375 43.767h2c-.9-.6-1.4-.4-2 0zM456.175 44.267h2c-.9-.7-1.4-.3-2 0zM200.275 25.567c-.2 0 0-.7.2-1 .1-.3.4-.3.4 0s-.4 1-.6 1zM438.075 25.167c-.2 0-.7-.6-.7-.8 0-.3.6.1.8.4.2.2.1.4-.1.4zM368.675 21.667h-1.7c1 .6 1 .6 1.7 0zM26.375 39.167c.1.3-.3.6-.4.6-.2 0-.3-.2-.2-.5 0-.3.5-.4.6-.1zM12.075 53.667c-.2.2-.4.2-.4 0s.5-.7.7-.8c.3 0-.1.6-.3.8zM371.875 73.167c-.1-.2-.1-.3-.1-.4.1-.1.4-.2.5-.2.1.1.1.6.1.9 0 .3-.4-.1-.5-.3zM214.675 29.167c-.1 0-.2-.1-.2-.3 0-.2.3-.6.5-.7.1.1.1.6.1.7 0 .2-.3.3-.4.3zM210.175 79.467c-.3 0-.6-.5-.6-.7.1-.2.5.1.7.3.1.2.1.4-.1.4zM338.575 53.968c.1-.2.4.2.5.4.1.2.1.3.1.4 0 0-.4.1-.5.1-.1-.1-.1-.6-.1-.9zM385.975 40.867c0-.1.4.2.6.4.1.2.3.3 0 .3s-.6-.5-.6-.7zM386.475 72.267c0 .1-.6.2-.9.2-.2 0-.5-.1-.5-.2s.6-.1.9-.1c.3 0 .5.1.5.1zM377.375 34.567c-.1 0-.4-.4-.4-.6 0-.1.4-.2.4-.2.1.1.2.5.2.6 0 .1-.1.2-.2.2zM116.175 10.767c0 .1-.6.2-.8.2-.2 0-.4-.1-.4-.2s.6-.1.8-.1c.2 0 .4 0 .4.1zM354.675 32.967v.1c.1.2.6.2.1.6l-.2.2c-.4-.1-.4-.7-.3-.8.1-.2.3-.2.4-.1zM244.575 77.067c.1-.3.2-.2.2.1 0 .3-.3.9-.4.8-.2 0 .1-.7.2-.9zM123.375 11.767c0 .1-.6.2-.8.2-.2 0-.4-.2-.4-.2 0-.1.6-.1.8-.1.2 0 .4 0 .4.1zM355.775 76.467c0 .2-.6.2-.7 0-.1-.2.4-.4.5-.4.2 0 .3.2.2.4zM119.975 8.967c-.1.3-.2.2-.2-.1 0-.3.4-.8.4-.8.2 0-.1.7-.2.9zM61.275 9.467c-.1 0-.2-.4-.2-.6 0-.2.2-.3.4-.2.2.1-.1.8-.2.8zM52.975 8.567c-.1-.2-.1-.3-.1-.4 0 0 .3-.1.5-.2.1.1.1.6.1.9 0 .3-.4-.1-.5-.3zM11.775 48.567c0-.1.6-.2.8-.2.2 0 .4.2.4.2 0 .1-.6.1-.8.1-.2 0-.4 0-.4-.1zM235.775 78.967c-.3.2-.6.5-.9.8.6.8.8-.1.9-.8zM379.675 44.067c0 .2-.2.3-.4.3-.2-.1-.1-.7.1-.8.2-.1.3.3.3.5zM34.775 66.467c-.1-.1-.1-.6-.1-.7 0-.2.3-.3.3-.2.1 0 .2.1.2.3 0 .2-.3.6-.4.6zM397.675 68.667c.2-.2.8-.1.8 0 0 .2-.5.3-.8.3-.2 0-.3-.1 0-.3zM131.175 10.367c-.2 0-.4 0-.4-.1 0 0 .6-.2.8-.2.2 0 .4.1.4.2s-.6.1-.8.1zM111.175 9.867c-.2 0-.4-.1-.4-.2 0 0 .7-.1.8-.1.2 0 .4 0 .4.1s-.6.2-.8.2zM368.775 21.567h1c-.6-.4-.6-.4-1 0zM288.475 21.867c-.3-.1-.5-.3-.7-.4-.2.5.1.6.7.4zM341.975 24.567h1c-.6-.4-.6-.4-1 0zM156.175 71.567c.1-.2.5 0 .5.2s-.4.2-.5.2c-.1-.1-.1-.2 0-.4zM246.375 26.067c.2-.2.4-.3.7-.7-.8-.1-.8-.1-.7.7zM384.675 53.767c-.1 0-.2-.4-.2-.5 0-.1.1-.1.2-.1.1.1.4.5.4.5 0 .1-.3.1-.4.1zM369.075 73.967c-.2 0-.3 0-.3-.1s.4-.3.6-.2c.2 0 .3.2.3.2 0 .1-.4.1-.6.1zM215.675 28.467c.3.1.5.3.7.4.2-.5 0-.7-.7-.4zM256.675 75.567c0-.1.2-.5.3-.5.1 0-.1.4-.2.5 0 .1-.1.1-.1 0zM.075 29.667c-.1-.1-.1-.2 0-.4.2-.2.6 0 .5.2 0 .2-.4.2-.5.2zM245.275 29.567c-.2 0-.3 0-.3-.1s.4-.2.6-.2c.2 0 .3.2.3.2 0 .1-.4.1-.6.1zM374.075 30.667c-.1 0-.2-.5-.2-.6 0-.1.1-.1.2 0 .2.1.1.6 0 .6zM104.575 4.667c0-.1.5-.1.7-.1.2 0 .4.1.3.1 0 .1-.5.2-.7.2-.1 0-.3-.1-.3-.2zM35.675 9.367c-.2 0-.3 0-.3-.1s.5-.2.6-.2c.2 0 .3.2.3.2 0 .1-.4.1-.6.1zM72.275 9.867c-.1 0-.3-.1-.3-.1s.6-.2.7-.2c.1 0 .3.2.3.2 0 .1-.6.1-.7.1zM445.475 54.567c.2 0 .3 0 .3.1s-.4.2-.6.2c-.2 0-.3-.2-.3-.2 0-.1.4-.1.6-.1zM129.375 12.268c0-.2.1-.2.2 0 .2.2 0 .7-.1.7s-.1-.5-.1-.7zM421.775 63.167c0 .1-.4.2-.6.2-.2 0-.3-.2-.3-.3 0-.1.4-.1.6-.1.2 0 .3.1.3.2zM48.375 64.567c.2 0 .3 0 .3.1-.1.1-.5.2-.6.2-.2 0-.3-.2-.3-.2 0-.1.4-.1.6-.1zM394.875 65.967c-.1 0-.1-.4-.1-.6 0-.2.3-.3.4-.4 0 0 .1.2 0 .4 0 .2-.3.6-.3.6zM450.975 45.067c0 .1-.4.2-.6.2-.2-.1-.3-.2-.3-.3 0-.1.4-.1.6-.1.2 0 .3.1.3.2zM393.175 38.667c.2-.2.4-.3.7-.7-.8-.1-.8-.1-.7.7zM390.875 40.067c0 .1-.4.1-.6.1-.1 0-.3 0-.3-.1s.4-.2.6-.2c.2 0 .3.2.3.2zM236.775 79.667c.1-.2.5 0 .5.2 0 .1-.4.2-.5.2-.1-.1-.1-.2 0-.4zM448.675 44.167c0-.1.3-.2.4-.2.1 0 .2.2.2.2 0 .1-.3.1-.4.1-.1 0-.2 0-.2-.1zM97.975 3.867c-.1 0-.2 0-.2-.1s.3-.2.4-.2c.1 0 .2.2.2.2 0 .1-.3.1-.4.1zM125.175 12.267c0 .1-.4.2-.5.2-.1 0-.2-.2-.2-.2 0-.1.4-.1.5-.1.1 0 .2.1.2.1zM33.175 9.867c-.1 0-.2-.2-.2-.2s.3-.1.4-.1c.1 0 .2 0 .2.1s-.3.2-.4.2zM382.275 41.367s.1.4.1.6c-.069.138-.138.228-.141.271.011.019.025.03.041.03-.031 0-.043-.01-.041-.03-.059-.096-.059-.403-.059-.57 0-.2 0-.3.1-.3zM56.475 8.167c0 .1-.1.3-.1.3s-.1-.4-.1-.7c0-.1.1-.3.1-.3s.1.5.1.7zM84.075 10.667c0-.1.3-.1.4-.1.1 0 .2.1.2.1 0 .1-.3.2-.4.2-.1 0-.2-.2-.2-.2zM83.475 10.667c.2-.1.2.1 0 .4-.2-.1-.2-.1-.2 0-.2-.1 0-.3.2-.4zM121.475 11.167c0 .1-.4.2-.5.2-.2 0-.2-.1-.2-.2s.4-.1.5-.1c.1 0 .2.1.2.1zM424.975 27.867c0 .1-.4.2-.5.2-.1 0-.2-.1-.2-.2s.4-.1.5-.1c.1 0 .2 0 .2.1zM391.175 28.067c-.1 0-.2-.1-.2-.1s.4-.2.5-.2c.1 0 .2.2.2.2 0 .1-.4.1-.5.1zM320.175 34.267s-.1-.5-.1-.7c0-.2 0-.3.1-.3s.1.6.1.7c0 .1-.1.3-.1.3zM380.375 33.467c0 .1-.4.2-.5.2-.1 0-.2-.1-.2-.2s.4-.1.5-.1c.1 0 .2.1.2.1zM355.475 33.167h-.2c-.2-.1.1-.3.2-.4.2-.1.2.1 0 .4zM327.375 30.667s-.1-.4-.1-.6c0-.2.1-.3.1-.3.1 0 .1.4.1.6 0 .2 0 .3-.1.3zM159.375 16.967c-.1 0-.2-.1-.2-.1s.3-.2.5-.2c.1 0 .2.2.2.2 0 .1-.4.1-.5.1zM341.375 25.067c-.2.1-.2-.1 0-.4.3.1.3.1.2 0 .2.1 0 .3-.2.4zM193.375 25.067c-.1 0-.2 0-.2-.1s.3-.2.4-.2c.1 0 .2.2.2.2 0 .1-.3.1-.4.1zM245.275 25.467c0-.1.1-.3.1-.3.1 0 .1.5.1.7 0 .1-.1.3-.1.3s-.1-.5-.1-.7zM199.275 25.367c0 .1-.4.2-.5.2-.1 0-.2-.2-.2-.2 0-.1.4-.1.5-.1.1 0 .2.1.2.1zM405.675 35.667c-.1 0-.2-.2-.2-.2 0-.1.3-.1.4-.1.1 0 .2 0 .2.1s-.3.2-.4.2zM252.475 75.267c0 .1-.4.2-.5.2-.1 0-.2-.1-.2-.2s.4-.1.5-.1c.1 0 .2.1.2.1zM254.575 75.167c.1 0 .2.2.2.2 0 .1-.3.1-.4.1-.1 0-.2 0-.2-.1s.3-.2.4-.2zM307.775 75.167c.1 0 .2.1.2.1s-.3.2-.5.2c-.1 0-.2-.1-.2-.2s.4-.1.5-.1zM361.075 75.467c-.1 0-.2-.2-.2-.2 0-.1.3-.1.4-.1.1 0 .2 0 .2.1s-.3.2-.4.2zM160.075 72.267c0-.1.4-.1.5-.1.2 0 .2 0 .2.1s-.4.2-.5.2c-.1 0-.2-.2-.2-.2zM159.575 71.667c.1 0 .2 0 .2.1s-.3.2-.4.2c-.1 0-.2-.2-.2-.2 0-.1.3-.1.4-.1zM323.675 82.267c0 .1-.3.2-.4.2-.1 0-.2-.1-.2-.2s.3-.1.4-.1c.1 0 .2 0 .2.1zM385.875 51.067c0-.1.3-.1.4-.1.1 0 .2.1.2.1 0 .1-.3.2-.4.2-.1 0-.2-.2-.2-.2zM325.775 80.267c0 .1-.3.2-.4.2-.1 0-.2-.2-.2-.2 0-.1.3-.1.4-.1.1 0 .2 0 .2.1zM201.475 78.967s-.1-.4-.1-.6c0-.1.1-.2.1-.3.1 0 .1.4.1.6 0 .2 0 .3-.1.3zM338.775 78.467c-.1 0-.2-.2-.2-.2 0-.1.3-.1.4-.1.1 0 .2 0 .2.1s-.3.2-.4.2zM246.675 77.667c.1 0 .2.2.2.2 0 .1-.3.1-.4.1-.1 0-.2 0-.2-.1s.3-.2.4-.2zM360.275 53.267c-.1 0-.2-.2-.2-.2s.4 0 .5-.1c.1 0 .2.1.2.1 0 .1-.4.2-.5.2zM308.775 77.167c.1 0 .2.2.2.2 0 .1-.3.1-.4.1-.1 0-.2 0-.2-.1s.3-.2.4-.2zM381.675 53.767c-.1 0-.2-.2-.2-.2s.2-.1.4-.1c.1 0 .2 0 .2.1s-.3.2-.4.2zM356.675 53.567c0 .1-.3.2-.4.2-.2 0-.2-.2-.2-.2 0-.1.3-.1.4-.1.1 0 .2 0 .2.1zM325.975 76.967c-.1 0-.2-.2-.2-.2s.4-.1.5-.1c.1 0 .2.1.2.1 0 .1-.4.2-.5.2zM125.675 67.367c-.1 0-.2-.1-.2-.1s.4-.2.5-.2c.1 0 .2.1.2.2s-.4.1-.5.1zM368.575 67.367c-.1 0-.2 0-.2-.1.1-.1.3-.2.4-.2.1 0 .2.2.2.2 0 .1-.3.1-.4.1zM112.975 64.067c.1 0 .2.2.2.2s-.3.1-.5.1c-.1 0-.2 0-.2-.1s.4-.2.5-.2zM380.275 54.267c-.1 0-.2 0-.2-.1s.3-.2.4-.2c.1 0 .2.2.2.2 0 .1-.3.1-.4.1zM343.575 54.667c0-.1.4-.1.5-.1.2 0 .3 0 .2.1 0 .1-.4.2-.5.2-.1 0-.2-.2-.2-.2zM12.875 55.367s-.1-.5-.1-.7c0-.2.1-.3.1-.3.1 0 .1.6.1.7 0 .1-.1.3-.1.3zM389.575 71.367c-.1 0-.2-.2-.2-.2s.2 0 .4-.1c.1 0 .2 0 .2.1s-.3.2-.4.2zM399.175 68.367c-.1 0-.2 0-.2-.1s.3-.2.4-.2c.1 0 .2.2.2.2 0 .1-.3.1-.4.1zM400.375 68.167c.1 0 .2.2.2.2s-.3.1-.4.1c-.1 0-.2 0-.2-.1s.3-.2.4-.2zM343.375 49.467c.1 0 .2 0 .2.1s-.3.2-.4.2c-.1 0-.2-.2-.2-.2 0-.1.3-.1.4-.1zM43.275 43.867c.1 0 .2 0 .2.1s-.3.2-.4.2c-.1 0-.2-.2-.2-.2 0-.1.3-.1.4-.1zM337.775 50.167c0-.1.4-.2.5-.2.1 0 .2.1.2.2s-.4.1-.5.1c-.1 0-.2 0-.2-.1zM21.075 48.367c.1 0 .2.1.2.2s-.4.2-.4.2c-.1-.1-.2-.2-.2-.3 0-.1.3-.1.4-.1zM340.375 49.967c.1 0 .2.2.2.2-.1.1-.3.1-.4.1-.1 0-.2 0-.2-.1s.3-.2.4-.2zM133.575 68.767v.2s-.1-.2-.1-.3c0-.1.1-.2.1-.2v.3zM395.875 67.867l-.1-.1.2-.1.1.1c0 .1-.1.1-.2.1zM110.175 63.667c0-.1.1-.2.1-.2v.5s-.1-.2-.1-.3zM276.175 77.767c0-.1.1-.2.1-.2v.5s-.1-.2-.1-.3zM304.475 77.167l.1.1c0 .1-.2.1-.2.1l-.1-.1c0-.1.1-.1.2-.1zM184.975 76.867l-.1-.1s.1 0 .2-.1l.1.1s-.1.1-.2.1zM264.975 76.667c0-.1.1-.1.1-.1s0 .2-.1.4h-.2s.2-.2.2-.3zM295.975 76.767s-.1.1-.2.1-.1 0-.1-.1.1-.1.2-.1l.1.1zM324.575 79.967l-.1-.1s.1-.1.2-.1l.1.1c0 .1-.1.1-.2.1zM333.875 79.367v.2s0-.2-.1-.3c0-.1.1-.2.1-.2v.3zM320.575 72.867c0 .1-.1.2-.1.2v-.5s.1.2.1.3zM325.275 76.767v-.2s.1.2.1.3c0 .1-.1.2-.1.2v-.3zM247.275 29.467c0 .1-.1.1-.2.1s-.1-.1-.1-.1.1-.1.2-.1l.1.1zM374.775 52.367s-.1-.2-.1-.3c0-.1 0-.2.1-.2v.5zM243.575 29.467s.1-.1.2-.1l.1.1c0 .1-.1.1-.2.1l-.1-.1zM330.175 31.067c0 .1-.1.2-.1.2v-.5s.1.2.1.3zM344.375 31.467c0-.1.2 0 .2.1.1.1.1.2 0 .2s-.2-.2-.2-.3zM15.575 51.067v-.2s.1.2.1.3c0 .1-.1.2-.1.2v-.3zM371.675 31.967v.2l-.1-.2c-.1-.1-.1-.2-.1-.2l.2.2zM321.275 31.767v.5s-.1-.2-.1-.3c0-.1.1-.2.1-.2zM303.675 32.067v.2s0-.3-.1-.3c0-.1.1-.2.1-.2v.3zM343.875 24.467v.2s-.1-.2-.1-.3c0-.1.1-.2.1-.2v.3zM194.675 24.967c0 .1-.1.2-.1.2v-.5s.1.2.1.3zM218.575 25.667v-.5s.1.2.1.3c0 .1-.1.2-.1.2zM216.875 25.567l-.1-.1c0-.1.1-.1.2-.1l.1.1c0 .1-.1.1-.2.1zM403.875 25.967v.2s-.1-.2-.1-.3c0-.1.1-.2.1-.2v.3zM271.775 26.367v-.2s.1.2.1.3c0 .1-.1.2-.1.2v-.3zM267.675 26.367v-.2s.1.2.1.3c0 .1-.1.2-.1.2v-.3zM209.675 28.467l-.1-.1s.1 0 .2-.1l.1.1s-.1.1-.2.1zM225.075 28.967l-.1-.1s.2 0 .2-.1l.1.1s-.1.1-.2.1zM26.875 38.467v-.2s.1.2.1.3c0 .1-.1.2-.1.2v-.3zM23.875 38.967l.1.1s-.1 0-.2.1l-.1-.1s.1-.1.2-.1zM28.375 41.467l.1.1s-.2 0-.2.1l-.1-.1s.1-.1.2-.1zM27.675 41.367l.1.1c0 .1-.2.1-.2.1l-.1-.1c0-.1.1-.1.2-.1zM17.675 44.367c0-.1.1-.1.1-.1s0 .3-.1.4h-.2s.1-.2.2-.3zM379.875 42.567v.2s-.1-.2-.1-.3c0-.1.1-.2.1-.2v.3zM27.775 44.067s-.1.1-.2.1-.2-.1-.1-.1c0-.1.1-.1.2-.1l.1.1zM455.775 44.167c0 .1-.1.2-.1.2-.1 0-.1-.3 0-.3v-.2s.1.2.1.3zM351.775 33.567c0 .1-.1.2-.1.2v-.5s.1.2.1.3zM318.575 33.567c0 .1-.1.2-.1.2-.1 0-.1-.3 0-.3v-.2s.1.2.1.3zM317.675 33.567l-.1-.1.2-.1.1.1s-.1.1-.2.1zM404.575 36.067c0 .1-.1.2-.1.2v-.5s.1.2.1.3zM397.775 36.567c0 .1-.1.2-.1.2s-.1-.2 0-.3v-.2s.1.2.1.3zM7.775 37.867l.1.1-.2.1-.1-.1c0-.1.1-.1.2-.1zM445.375 56.967v.5s-.1-.2-.1-.3c0-.1.1-.2.1-.2zM358.775 56.667c0-.1.1-.1.2-.1s.1 0 .1.1l-.2.1-.1-.1zM82.975 3.267s.1-.1.2-.1.2.1.1.1c0 .1-.1.1-.2.1l-.1-.1zM347.575 56.367c0 .1-.1.1-.1.1s0-.3.1-.4h.2s-.1.2-.2.3zM99.975 4.167v-.2s.1.2.1.3c0 .1-.1.2-.1.2v-.3zM449.175 58.267v.2l-.1-.3c0-.1.1-.2.1-.2v.3zM110.275 10.867v.2l-.1-.3c0-.1.1-.2.1-.2v.3zM82.875 11.367h-.2s.1-.2.2-.2c0-.1.1-.1.1-.1s-.1.2-.1.3zM148.975 12.867l-.1-.1s.1 0 .2-.1l.1.1s-.1.1-.2.1zM16.875 13.367v-.2c0-.1.2.1.1.2.1.1.1.2.1.2l-.2-.2zM154.075 13.967l-.1-.1c0-.1.2-.1.2-.1l.1.1c0 .1-.1.1-.2.1zM17.375 13.767v.2s-.2-.2-.1-.2c-.1-.1-.1-.2-.1-.2l.2.2zM186.975 17.367c0-.1.1-.1.2-.1 0 0 .1 0 .1.1 0 0-.1.1-.2.1l-.1-.1zM185.375 17.267v-.2l.1.3c0 .1-.1.2-.1.2v-.3zM285.875 21.367v-.2s0 .2.1.3c0 .1-.1.2-.1.2v-.3zM358.175 22.367v-.2c.1 0 .1.2.1.3 0 .1-.1.2-.1.2v-.3zM345.275 23.767l.1.1c0 .1-.2.1-.2.1s-.1 0-.1-.1.1-.1.2-.1zM409.375 24.467c0 .1-.1.2-.1.2v-.5s.1.2.1.3zM106.575 4.667l.1.1-.2.1-.1-.1s.1-.1.2-.1zM108.975 5.067l.1.1c0 .1-.2.2-.2.1 0 0-.1 0-.1-.1s.1-.1.2-.1zM114.975 5.667c0-.1.1-.2.1-.2v.5s-.1-.2-.1-.3zM107.575 7.767v.2c-.1 0-.1-.2-.1-.3 0-.1.1-.2.1-.2v.3zM118.375 8.367l-.1-.1.2-.1s.1 0 .1.1-.1.1-.2.1zM58.875 8.267c0 .1-.1.2-.1.2v-.5s.1.2.1.3zM43.075 8.267c0 .1-.1.2-.1.2v-.5s.1.2.1.3zM38.975 8.767c0 .1-.1.2-.1.2v-.5s.1.2.1.3zM124.375 9.167c.1 0 .1 0 .1.1 0 0-.1.1-.2.1l-.1-.1c0-.1.1-.1.2-.1zM66.675 9.367l-.1-.1s.1-.1.2-.1l.1.1c0 .1-.2.1-.2.1zM372.575 54.767l-.1-.1c0-.1.2-.1.2-.1l.1.1s-.1.1-.2.1zM121.975 9.867v.2c-.1 0-.1-.3-.1-.3 0-.1.1-.2.1-.2v.3zM377.075 54.667v.2s0-.2-.1-.3c0-.1.1-.2.1-.2v.3zM112.975 10.367v-.2c0-.1 0 .1.1.2s.1.2.1.2l-.2-.2zM117.775 10.867l-.1-.1s.1-.1.2-.1l.1.1s-.1.1-.2.1zM359.975 51.567l.8.4c.3.1-.1.3-.3.4-.2 0-.3.4-.3.5 0 .1-.4.2-.6.2v.1c0 .1-.3.1-.4.1-.1 0-.2 0-.2-.1.1 0 .1-.1.2-.1-.2-.1-.3-.3-.4-.4-.1-.2-1-.8-1.3-.6-.3.2-.4.6-.4.7.1.1-.1.2-.1.2 0 .1-.2-.2-.2-.3 0-.1-.2-.2-.3-.2 0 0-.1-.1-.1-.3 0-.2.8-.5 1.1-.4.3.1.7 0 .7 0s.6.3.8.2c.2-.1.6-.5.7-.6.1-.1.3.2.3.2zM354.975 52.867c-.2-.1-.9-.3-.9-.4 0 0 .3-.1.4-.1.1 0 .6.3.7.4.2.1.1.2-.2.1zM354.075 51.167c.6 0 1.2-.1 1.8-.1-.7-.3-1.2-.1-1.8.1zM355.675 52.767c0-.1.4-.2.5-.2.1 0 .2 0 .2.2 0 .1-.4.3-.5.3-.1 0-.2-.2-.2-.3zM357.075 51.367c.4 0 .7 0 1.3-.1-.6-.3-1-.1-1.3.1z" fill="#AFEEEE"/><path d="M357.775 52.867s.3-.1.4-.1c.1 0 .2.1.2.1 0 .1-.3.1-.4.1-.1 0-.2-.1-.2-.1zM351.575 52.767c-.1.3-.4.4-.5.3-.1 0-.7.1-1 .1-.2 0-.9-.3-1.2-.3-.3 0-1.1-.1-1.9-.1l-.6-.3c-.1 0-.1.2 0 .3.1.1-.1.2-.1.2l-.2-.4c-.1-.3-.8-.5-.8-.7 0-.2.2-.2.5-.2h.2c.2 0 .4.2.5.1l.9-.7c1 .5 2.3.5 2.5.6.2 0 1.2-.3 1.4-.1.2.2.3 1 .3 1.2zM337.475 52.667c.4.1.7.4.7.5 0 .1-.6 0-.9 0-.2-.1-1-.1-1.2-.1-.2 0-.6-.1-.9-.2-.3-.1-.7-.6-.4-.8l.2.1.4.2c.5-.1 1.2 0 1.5.1l.3.1.3.1zM341.275 51.867l.5.1c.5.1-.4.5-.7.7-.5.1-1.1 0-1.2-.1-.1-.2.3-.5 1-.8l.4.1zM343.675 52.267c.2.1 1.3.3 1.5.4.2.1-.8.2-1.2.1-.4-.1-.7-.3-.7-.4 0-.1.2-.1.4-.1zM332.075 52.967c-.2 0-.4-.4-.4-.6 0-.2.2-.2.4 0 .2.1.2.6 0 .6zM346.175 50.367c.1.1.1.2.1.3-.1.1-.5 0-.5-.3-.1-.2.3-.1.4 0zM330.375 52.867c-.1-.1-.1-.2-.1-.2.1-.1.3-.1.3-.1.1.1.1.4.1.5 0 .1-.2-.1-.3-.2zM333.275 52.867c0-.1.2-.1.3-.1.1-.1.1 0 .1.1 0 0-.2.1-.3.1l-.1-.1zM341.475 52.967s0 .2.1.2c0 0 0-.1-.1-.2zM345.875 34.067c-.6-.3-1.2 0-1.8.2.6-.1 1.2-.1 1.8-.2zM311.875 35.467l-.1-.1s.2-.1.3-.1l.1.1s-.2.1-.3.1zM331.675 36.867v-.2c-.1.1 0 .2 0 .2z" fill="#AFEEEE"/></svg>